<?xml version="1.0" standalone="no"?>
<!DOCTYPE svg PUBLIC "-//W3C//DTD SVG 1.1//EN" "http://www.w3.org/Graphics/SVG/1.1/DTD/svg11.dtd" >
<svg xmlns="http://www.w3.org/2000/svg" xmlns:xlink="http://www.w3.org/1999/xlink" version="1.1">
<metadata>
Created by FontForge 20150318 at Wed Aug 26 07:46:24 2015
 By uniteet7
TrueType font: Copyright (c) 1991, 1994 ParaGraph. Technical realization by TeamAXis Corp. Hinted with AXisType ToolKit: Copyright (c) 1992, 1994 by Dmitry Komissarov. Officina Serif is a registered trade mark of International Typeface Corporation.
</metadata>
<defs>
<font id="OfficinaSerifCTTItalic" horiz-adv-x="500" >
  <font-face 
    font-family="OfficinaSerifCTTItalic"
    font-weight="400"
    font-style="italic"
    font-stretch="normal"
    units-per-em="1000"
    panose-1="0 0 0 0 0 0 0 0 0 0"
    ascent="800"
    descent="-200"
    x-height="480"
    cap-height="685"
    bbox="-150 -250 1031 882"
    underline-thickness="50"
    underline-position="-75"
    slope="-12"
    unicode-range="U+0020-2219"
  />
<missing-glyph horiz-adv-x="882" 
d="M55 0v882h772v-882h-772zM772 55v772h-662v-772h662z" />
    <glyph glyph-name=".notdef" horiz-adv-x="882" 
d="M55 0v882h772v-882h-772zM772 55v772h-662v-772h662z" />
    <glyph glyph-name=".null" horiz-adv-x="0" 
 />
    <glyph glyph-name="nonmarkingreturn" horiz-adv-x="233" 
 />
    <glyph glyph-name="space" unicode=" " horiz-adv-x="233" 
 />
    <glyph glyph-name="exclam" unicode="!" horiz-adv-x="333" 
d="M302 669l-106 -394q-3 -10 -13 -10h-32q-12 0 -10 15l62 393q2 12 14 12h76q13 0 9 -16zM190 53q0 -25 -18 -46t-49 -21q-29 0 -48 19t-19 48t19 48t48 19q31 0 49 -20.5t18 -46.5z" />
    <glyph glyph-name="quotedbl" unicode="&#x22;" horiz-adv-x="463" 
d="M392 708l-16 -242q0 -13 -12 -13h-26q-12 0 -12 13l-16 242q-1 6 3 7t9 2h58q12 -3 12 -9zM244 708l-16 -242q0 -13 -12 -13h-26q-12 0 -12 13l-16 242q-1 6 3 7t9 2h58q12 -3 12 -9z" />
    <glyph glyph-name="numbersign" unicode="#" horiz-adv-x="496" 
d="M496 434l-9 -49q-3 -8 -11 -8h-65l-63 -200h64q9 0 6 -8l-10 -49q-3 -8 -10 -8h-71l-55 -178q-2 -4 -3 -9q-3 -5 -12 -5h-39q-15 0 -10 14l55 178h-122l-55 -178q-2 -4 -3 -9q-3 -5 -12 -5h-39q-15 0 -10 14l55 178h-64q-9 0 -6 8l10 49l10 8h71l63 200h-70q-5 0 -5 8
l9 49q2 8 11 8h76l63 201l4 11q2 3 11 3h45q7 0 7 -4q0 -1 -3 -10l-63 -201h122l63 201l4 11q2 3 11 3h45q7 0 7 -4q0 -1 -3 -10l-63 -201h59q7 0 5 -8zM347 377h-122l-63 -200h122z" />
    <glyph glyph-name="dollar" unicode="$" 
d="M480 611l-3 -7l-26 -42q-1 -2 -8 -4q-5 0 -16 7q-23 13 -34 18q-22 10 -45 13l-49 -230l14 -11q56 -44 75 -83t19 -82q0 -39 -13 -73q-16 -41 -50 -72q-28 -25 -60 -37t-63 -12l-11 -55q-2 -11 -15 -11h-26q-10 0 -8 15l10 50l-52 7q-30 6 -57 20q-8 4 -17.5 10t-10.5 13
l2 7l25 43q4 5 7 5q3 -2 6.5 -3t11 -5.5t24.5 -13t23 -10.5q16 -6 26 -8.5t25 -2.5l55 261l-19 15q-23 18 -33 27q-16 15 -28 31.5t-19 35.5q-11 29 -11 60q0 84 67 133q22 16 52 26.5t63 10.5l9 39q4 11 15 11h26q13 0 9 -15l-9 -35q29 0 52 -7.5t53 -23.5q14 -8 14 -15z
M298 594q-19 -3 -35 -10t-27 -17q-21 -17 -28 -39t-7 -43q0 -33 17 -57q9 -13 32 -31l5 -4zM331 181q0 17 -3.5 31t-10.5 30t-13 24t-16 18l-5 5l-49 -231q46 9 71.5 44t25.5 79z" />
    <glyph glyph-name="percent" unicode="%" horiz-adv-x="759" 
d="M714 209q0 -95 -51 -159t-123 -64q-46 0 -73 25q-32 30 -32 88q0 97 51.5 162.5t124.5 65.5q45 0 72 -26q31 -30 31 -92zM599 649q0 -4 -1.5 -6.5t-2.5 -3.5l-351 -644q-6 -9 -17 -9h-41q-10 0 -10 7l4 10l351 645q5 9 15 9h43q10 0 10 -8zM348 539q0 -95 -51 -159
t-123 -64q-46 0 -73 25q-32 30 -32 88q0 97 51.5 162.5t124.5 65.5q45 0 72 -26q31 -30 31 -92zM649 213q0 24 -7 38q-11 22 -37 22q-42 0 -72 -45q-33 -49 -33 -130q0 -24 6 -36q11 -22 40 -22q39 0 69 44q34 50 34 129zM283 543q0 24 -7 38q-11 22 -37 22q-42 0 -72 -45
q-33 -49 -33 -130q0 -24 6 -36q11 -22 40 -22q39 0 69 44q34 50 34 129z" />
    <glyph glyph-name="ampersand" unicode="&#x26;" horiz-adv-x="593" 
d="M569 297q-7 -35 -26 -75q-28 -61 -71 -108l53 -79q4 -7 4 -9q0 -5 -8 -10l-41 -27l-8 -3q-4 0 -10 8l-45 69l-13 -10q-47 -36 -93.5 -51.5t-99.5 -15.5q-38 0 -66 8q-37 11 -63 36q-18 18 -28 38q-17 34 -17 77q0 38 11 71q16 48 54 84q17 16 48.5 36.5t56.5 33.5l4 2
l-5 7q-23 33 -38 71t-15 74q0 85 63 133q55 42 134 42q73 0 111 -44q31 -36 31 -91q0 -33 -13.5 -66t-36.5 -58q-19 -22 -56 -46q-26 -17 -65 -37l-8 -4l123 -184q21 29 35.5 61t22.5 64q5 19 14 19h52q12 0 9 -16zM416 559q0 34 -16 55q-20 27 -61 27q-44 0 -77 -31
t-33 -82q0 -19 3.5 -33t19.5 -45q7 -13 10 -18q7 -11 15 -22l3 -5l11 6q59 32 87 61q38 39 38 87zM381 118l-135 201l-15 -9q-41 -25 -44 -27q-18 -12 -29 -22q-45 -42 -45 -108q0 -24 4 -37.5t18.5 -31t34.5 -27t51 -9.5q44 0 88 21q30 14 60 39z" />
    <glyph glyph-name="quotesingle" unicode="'" horiz-adv-x="167" 
d="M187 708l-15 -242q-1 -13 -9 -13h-33q-8 0 -9 13l-16 242q0 6 10 9h62q10 -3 10 -9z" />
    <glyph glyph-name="parenleft" unicode="(" horiz-adv-x="427" 
d="M455 691q0 -3 -13 -16q-42 -39 -94.5 -114t-89.5 -151.5t-55.5 -155t-18.5 -175.5q0 -85 25 -166q17 -54 45 -106q4 -8 4 -11q-3 -11 -9 -14l-25 -14l-13 -4q-6 0 -11.5 8.5t-6.5 10.5q-47 80 -70 172q-19 75 -19 146q0 98 34.5 206t99.5 210q31 47 73.5 99.5t83.5 93.5
q15 14 20 14l7 -3l27 -20q6 -5 6 -10z" />
    <glyph glyph-name="parenright" unicode=")" horiz-adv-x="427" 
d="M321 387q0 -98 -33 -202q-36 -112 -101 -214q-31 -47 -73.5 -99.5t-83.5 -93.5q-15 -14 -20 -14l-7 3l-27 20q-6 5 -6 10q0 3 13 16q42 39 96 116q51 73 88 149.5t55.5 155t18.5 175.5q0 85 -25 166q-17 54 -45 106q-4 8 -4 11q3 11 9 14l25 14l13 4q6 0 11.5 -8.5
t6.5 -10.5q47 -80 70 -172q19 -75 19 -146z" />
    <glyph glyph-name="asterisk" unicode="*" 
d="M470 543l-3 -4l-6 -2l-115 -28l78 -92q5 -7 -5 -15l-34 -25q-4 -4 -7 -4l-8 3l-64 103l-64 -103q-3 -5 -8 -5l-6 4l-35 25q-11 8 -5 15l79 93l-118 29q-7 2 -7 7l2 7l13 41q3 11 12 8l112 -46l-9 122q-1 6 3 7t9 2h43q12 -3 12 -9l-9 -122l108 45l11 2q4 0 6 -8l12 -40z
" />
    <glyph glyph-name="plus" unicode="+" 
d="M477 232q0 -10 -2.5 -12t-11.5 -2h-178v-178q0 -14 -13 -14h-46q-13 0 -13 14v178h-178q-10 0 -11.5 2t-1.5 12v44q0 11 2.5 12.5t10.5 1.5h178v176q0 9 4 11t9 3h46q4 0 8.5 -2.5t4.5 -11.5v-176h178q11 0 12.5 -2t1.5 -12v-44z" />
    <glyph glyph-name="comma" unicode="," horiz-adv-x="204" 
d="M148 107q0 -6 -4 -10l-147 -214q-4 -6 -9 -6l-7 2l-21 10q-7 4 -7 7l2 6l83 202q4 10 15 10h85q10 0 10 -7z" />
    <glyph glyph-name="hyphen" unicode="-" horiz-adv-x="296" 
d="M267 275l-10 -47q-3 -12 -15 -12h-206q-10 0 -10 7l2 12l9 44q2 12 15 12h207q11 0 8 -16z" />
    <glyph glyph-name="period" unicode="." horiz-adv-x="296" 
d="M172 53q0 -29 -19 -48t-48 -19t-48 19t-19 48t19 48t48 19t48 -19t19 -48z" />
    <glyph glyph-name="slash" unicode="/" horiz-adv-x="482" 
d="M507 710q-3 -7 -5 -10l-521 -894q-4 -8 -18 -8h-46q-10 2 -10 7l4 10l522 894q5 8 17 8h47q10 0 10 -7z" />
    <glyph glyph-name="zero" unicode="0" 
d="M485 467q0 -109 -33 -218q-38 -124 -104.5 -193.5t-156.5 -69.5q-41 0 -71 14.5t-51 49.5q-16 27 -21 59t-5 67q0 77 16.5 155t52.5 153q45 94 108 137q53 36 118 36q38 0 65.5 -13.5t47 -39t28.5 -71.5q6 -32 6 -66zM409 467q0 31 -4 52.5t-15.5 37t-28.5 24.5t-40 9
q-42 0 -77 -29q-43 -36 -74 -112q-23 -58 -37 -134.5t-14 -145.5q0 -26 3.5 -45t14.5 -35.5t28.5 -26t40.5 -9.5q38 0 69 23q44 32 75 104q25 58 42 134.5t17 152.5z" />
    <glyph glyph-name="one" unicode="1" 
d="M387 634l-5 -25l-117 -547h90q10 0 7 -14l-8 -38q-2 -10 -12 -10h-264q-10 0 -7 14l8 38q2 10 12 10h98l107 495l-147 -83q-6 -3 -9 -3t-7 6l-16 24q-7 11 4 16l198 120q12 6 19 6h40q9 -3 9 -9z" />
    <glyph glyph-name="two" unicode="2" 
d="M479 526q0 -53 -21.5 -94t-58.5 -74q-18 -15 -48.5 -37.5t-67.5 -48.5q-77 -53 -111 -88q-48 -49 -70 -114h276q8 0 8 -8v-6q-2 -4 -2 -5l-9 -39q-3 -12 -12 -12h-341q-5 0 -8 8q0 14 2.5 23.5t4.5 17.5q19 70 56 122.5t87 95.5q24 21 78 59q80 57 110 89q45 48 45 98
q0 35 -18 56t-60 21q-43 0 -73 -26q-21 -17 -38 -41q-11 -15 -21 -35q-7 -11 -17 -8l-41 13q-13 4 -7 16l6 13q24 52 67 87q59 48 137 48q35 0 61.5 -9t47 -27t29.5 -43.5t9 -51.5z" />
    <glyph glyph-name="three" unicode="3" 
d="M452 533q0 -30 -9 -58.5t-29.5 -55t-45 -44t-52.5 -26.5l10 -4q37 -15 56 -41q23 -32 23 -84q0 -44 -16.5 -84t-43.5 -71q-32 -35 -74 -55q-51 -24 -115 -24q-45 0 -86 11q-21 6 -42 15q-8 3 -12 6q-8 6 -8 12q0 3 1 6t3 7l21 42q4 5 7 5q9 -3 11 -5q34 -19 67 -27
q22 -5 41 -5q45 0 76.5 13.5t53.5 38.5q19 21 29.5 48.5t10.5 58.5q0 26 -7.5 43.5t-21.5 29t-37 17.5t-47 6h-46q-14 0 -10 15l9 40q3 12 14 12h36q40 0 69 13.5t49 34.5t29.5 46t9.5 50q0 32 -21 52q-11 10 -26 14.5t-33 4.5q-57 0 -121 -57q-6 -6 -11 -6q-3 0 -6 2.5
t-4 3.5l-26 28l-3 4q1 3 3 7t7 9q26 28 61 46q19 10 44 18q38 12 68 12q68 0 105 -34q17 -15 28 -38.5t11 -51.5z" />
    <glyph glyph-name="four" unicode="4" 
d="M463 209l-9 -41q-2 -11 -15 -11h-81l-31 -145q-3 -12 -10 -12h-52q-10 3 -10 8l3 15l28 134h-257q-3 1 -4 1q-5 3 -5 9l2 13l7 34q1 8 9 18l345 425q6 7 12 7q3 0 9 -2l45 -10q7 -2 7 -7l-3 -7l-340 -414h188l46 160q3 11 13 11h37q12 0 9 -16l-33 -155h81q12 0 9 -15z
" />
    <glyph glyph-name="five" unicode="5" 
d="M472 626l-9 -41q-4 -12 -14 -12h-210l-66 -200l2 -2l3 2q24 17 44 25q30 13 66 13q57 0 95 -28q52 -39 52 -124q0 -52 -16.5 -97t-46.5 -82q-43 -54 -110 -78q-45 -16 -96 -16q-49 0 -98 13q-23 7 -26 8q-15 6 -10 19l12 41q1 5 3.5 7t6.5 3l23 -6q30 -10 55 -14t46 -4
q77 0 129 59t52 141q0 22 -4.5 36.5t-17.5 28.5t-30 20t-34 6q-28 0 -59 -11.5t-57 -33.5q-7 -6 -13.5 -12t-11.5 -6l-9 2l-28 10q-10 3 -10 11l4 15l96 313q3 11 15 11h263q12 0 9 -17z" />
    <glyph glyph-name="six" unicode="6" 
d="M509 640q0 -3 -1.5 -6.5t-2.5 -4.5l-16 -36q-5 -12 -12 -12l-16 3q-7 2 -20.5 4t-29.5 2q-86 0 -151 -72q-48 -53 -79 -138l2 -2q22 25 49 41q37 21 79 21q33 0 57 -10.5t41.5 -32t24.5 -53t7 -67.5q0 -69 -18 -122q-13 -40 -39 -75q-40 -56 -98 -79q-38 -15 -82 -15
q-43 0 -74 16q-19 10 -35 27t-27 49t-11 73q0 102 38 214q49 144 141 224q43 37 86.5 52.5t100.5 15.5q30 0 65 -6q13 -3 17 -4.5t4 -6.5zM365 269q0 57 -26 83q-19 21 -54 21q-28 0 -54.5 -12.5t-48.5 -42.5t-35.5 -76t-13.5 -100q0 -20 3.5 -35.5t13.5 -27.5t25 -19t38 -7
q39 0 67.5 19.5t48.5 53.5q15 26 25.5 67t10.5 76z" />
    <glyph glyph-name="seven" unicode="7" 
d="M511 626l-4 -18q-1 -5 -3.5 -9.5t-3.5 -5.5l-350 -598q-5 -11 -20 -8l-55 9q-3 1 -4.5 2t-2.5 2l-1 3q0 2 1 4.5t3 5.5l337 560h-263q-9 1 -9 3l1 16l8 39q3 12 15 12h342q12 0 9 -17z" />
    <glyph glyph-name="eight" unicode="8" 
d="M486 527q0 -41 -15 -71.5t-47 -58.5q-19 -16 -40.5 -30t-48.5 -25q62 -30 88 -74q21 -35 21 -80q0 -77 -54 -133q-28 -29 -70 -47q-52 -22 -115 -22q-47 0 -75.5 9.5t-55.5 31.5q-21 17 -33 38q-18 32 -18 77q0 56 29 100q18 27 46 48q23 17 45 28q31 16 66 24
q-43 24 -66 58.5t-23 80.5q0 37 14.5 72t50.5 62q58 42 139 42q36 0 65.5 -8.5t53.5 -28.5q43 -36 43 -93zM410 514q0 21 -7.5 35t-19.5 23t-31 13.5t-35 4.5q-58 0 -89.5 -30.5t-31.5 -71.5q0 -33 20 -61q17 -24 52 -48l10 -7l4 2q41 21 47 24q33 19 53 44q28 35 28 72z
M368 182q0 25 -9 44t-26 36q-12 12 -26 20.5t-35 17.5l-9 4l-6 -2q-30 -10 -48 -18q-41 -18 -65 -39q-20 -17 -31 -38q-14 -26 -14 -59q0 -25 8.5 -42.5t24 -29t39 -17.5t46.5 -6q68 0 111 37q23 20 33 46q7 19 7 46z" />
    <glyph glyph-name="nine" unicode="9" 
d="M467 498q0 -104 -34 -214q-40 -130 -111 -206q-85 -92 -203 -92h-11q-11 0 -24.5 1t-28.5 5t-15 13l2 12l7 36q2 9 10 9q1 0 31 -6q15 -3 31 -3q37 0 69 12q43 16 79 55q32 34 61 95q21 43 28 73l1 4l-2 2q-30 -46 -71 -67q-34 -18 -72 -18q-58 0 -94.5 45t-36.5 122
q0 111 59 191q67 90 179 90q83 0 120 -56q26 -40 26 -103zM391 495q0 39 -12 61q-19 34 -67 34q-68 0 -110.5 -65t-42.5 -152q0 -97 81 -97q64 0 107.5 60t43.5 159z" />
    <glyph glyph-name="colon" unicode=":" horiz-adv-x="296" 
d="M245 413q0 -29 -19 -48t-48 -19t-48 19t-19 48t19 48t48 19t48 -19t19 -48zM172 53q0 -29 -19 -48t-48 -19t-48 19t-19 48t19 48t48 19t48 -19t19 -48z" />
    <glyph glyph-name="semicolon" unicode=";" horiz-adv-x="296" 
d="M252 413q0 -29 -19 -48t-48 -19t-48 19t-19 48t19 48t48 19t48 -19t19 -48zM187 107q0 -6 -4 -10l-147 -214q-4 -6 -9 -6l-7 2l-21 10q-7 4 -7 7l2 6l83 202q4 10 15 10h85q10 0 10 -7z" />
    <glyph glyph-name="less" unicode="&#x3c;" 
d="M478 128l-2 -7l-16 -46q-3 -10 -9 -10l-12 3l-404 146q-11 4 -11 16v47q0 12 11 16l404 146l12 3q6 0 9 -10l16 -46l2 -8q0 -7 -9 -9l-322 -115l322 -116q9 -3 9 -10z" />
    <glyph glyph-name="equal" unicode="=" 
d="M477 300q0 -10 -2.5 -12t-11.5 -2h-428q-10 0 -11.5 2t-1.5 12v44q0 11 2.5 12.5t10.5 1.5h428q11 0 12.5 -2t1.5 -12v-44zM477 163q0 -10 -2.5 -12t-11.5 -2h-428q-10 0 -11.5 2t-1.5 12v44q0 11 2.5 12.5t10.5 1.5h428q11 0 12.5 -2t1.5 -12v-44z" />
    <glyph glyph-name="greater" unicode="&#x3e;" 
d="M488 230q0 -12 -11 -16l-404 -146l-12 -3q-6 0 -9 10l-16 46l-2 7q0 7 9 10l322 114l-322 117q-9 2 -9 9l2 8l16 46q3 10 9 10l12 -3l404 -146q11 -4 11 -16v-47z" />
    <glyph glyph-name="question" unicode="?" horiz-adv-x="463" 
d="M455 563q0 -46 -20 -83q-16 -30 -47 -55q-23 -19 -56.5 -33.5t-68.5 -22.5l-20 -95q-1 -7 -4 -8t-8 -2h-49q-8 3 -8 7l3 15l25 116q2 10 5.5 13t25.5 9l15 4q125 33 125 128q0 16 -3.5 29.5t-14.5 24.5t-25.5 16.5t-39.5 5.5q-29 0 -52.5 -5.5t-58.5 -18.5l-10 -2
q-5 0 -9 7l-12 42q-2 6 4.5 10t19.5 9q34 11 71 18t60 7q69 0 110 -35q22 -19 32 -44.5t10 -56.5zM231 53q0 -25 -18 -46t-49 -21q-29 0 -48 19t-19 48t19 48t48 19q31 0 49 -20.5t18 -46.5z" />
    <glyph glyph-name="at" unicode="@" horiz-adv-x="944" 
d="M885 364q0 -73 -26 -137.5t-69 -106.5q-30 -29 -72 -49.5t-79 -20.5q-27 0 -45.5 9.5t-26 23.5t-10.5 27.5t-3 28.5q-35 -50 -75 -72q-31 -17 -64 -17q-19 0 -36 7.5t-28.5 23.5t-16.5 38t-5 45q0 49 12 96t34 83q53 87 134 87q28 0 48 -11q14 -8 26 -22l6 -7l10 24
q2 6 7 6h48q7 0 5 -11l-49 -229l-3 -17v-9q0 -29 10.5 -39.5t30.5 -10.5q25 0 52.5 14t48.5 37q32 34 51.5 90t19.5 117q0 110 -69.5 174.5t-193.5 64.5q-180 0 -295.5 -122.5t-115.5 -295.5q0 -137 74 -215q81 -86 238 -86q77 0 145 16.5t140 49.5q7 3 14.5 7t11.5 5h4
q5 -1 7 -8l12 -29q2 -6 2 -9q0 -7 -10 -14t-40 -19q-75 -30 -142.5 -43.5t-137.5 -13.5q-177 0 -280 91q-107 95 -107 265q0 202 138.5 340.5t338.5 138.5q149 0 240 -79t91 -216zM575 338l-2 2q-12 12 -25 20q-20 12 -40 12q-17 0 -34.5 -11t-31.5 -34q-17 -29 -29 -75.5
t-12 -85.5q0 -31 9.5 -42.5t26.5 -11.5t33.5 9.5t34 26.5t31 42t22.5 66z" />
    <glyph glyph-name="A" unicode="A" horiz-adv-x="552" 
d="M521 48l-8 -38q-2 -10 -12 -10h-189q-9 3 -9 7q0 3 1.5 7.5l2.5 7.5l8 30q2 10 11 10h59l-12 144h-213l-72 -144h61q10 0 7 -14l-8 -38q-2 -10 -12 -10h-182q-9 3 -9 7q0 3 1.5 7.5l2.5 7.5l8 30q2 10 11 10h42l317 614q6 9 12 9h56q10 0 12 -13l56 -610h51q10 0 7 -14z
M367 273l-17 222q0 20 -1 45l-2 50l-20 -50q-3 -7 -22 -45l-112 -222h174z" />
    <glyph glyph-name="B" unicode="B" horiz-adv-x="547" 
d="M533 559q0 -66 -35 -119.5t-103 -79.5q42 -12 67 -46.5t25 -84.5q0 -43 -14.5 -81t-39.5 -70q-35 -43 -87 -62q-44 -16 -102 -16h-254q-9 3 -9 7q0 3 1.5 7.5l2.5 7.5l8 30q2 10 11 10h66l119 561h-67q-8 3 -8 7l3 15l8 30q2 10 12 10h197q61 0 83 -3q51 -7 80 -32
q19 -16 27.5 -38.5t8.5 -52.5zM451 538q0 16 -4 31t-12.5 24.5t-21.5 15.5q-19 9 -43 9h-103l-50 -236h63q43 0 67.5 8t44.5 25q24 21 41.5 56t17.5 67zM405 222q0 51 -34 74q-28 19 -81 19h-88l-52 -248h88q35 0 49 3q33 7 61 30t42.5 56.5t14.5 65.5z" />
    <glyph glyph-name="C" unicode="C" horiz-adv-x="471" 
d="M506 630l-2 -12l-23 -103q-2 -10 -12 -10h-46q-8 2 -8 6l2 11l18 84l-11 6q-15 8 -35.5 14t-38.5 6q-48 0 -87 -36q-46 -42 -79 -132q-24 -65 -37.5 -144.5t-13.5 -138.5q0 -32 6 -54.5t23 -42.5q10 -12 28 -21.5t45 -9.5q26 0 56 13q19 8 33 18l10 7l18 84q2 11 12 11
h46q8 0 8 -9q0 -6 -2 -12l-20 -95q-3 -15 -10 -21q-30 -25 -81 -44t-93 -19q-33 0 -56 8q-38 13 -62.5 44t-33.5 70t-9 84q0 79 17 165t51 159q49 104 122 150q53 33 114 33q24 0 49 -5.5t46.5 -15t38.5 -23t17 -25.5z" />
    <glyph glyph-name="D" unicode="D" horiz-adv-x="574" 
d="M554 492q0 -75 -25 -178t-64 -172q-42 -75 -104 -108.5t-166 -33.5h-205q-9 3 -9 7q0 3 1.5 7.5l2.5 7.5l8 30q2 10 11 10h66l119 561h-67q-8 3 -8 7l3 15l8 30q2 10 12 10h219q41 0 67 -5q52 -10 82 -38q24 -22 36.5 -58t12.5 -92zM472 493q0 27 -5 52t-22 43t-41.5 24
t-48.5 6h-88l-116 -551h69q53 0 95 24q30 17 53 45q52 64 81 184q23 95 23 173z" />
    <glyph glyph-name="E" unicode="E" 
d="M534 676l-30 -140q-2 -11 -12 -11h-46q-9 3 -9 6l2 9l16 78h-190l-48 -229h208q12 0 8 -15l-8 -40q-2 -12 -14 -12h-209l-54 -255h197l20 95q1 4 3.5 7.5t8.5 3.5h49q7 0 5 -11l-31 -150q-3 -12 -15 -12h-397q-9 3 -9 7q0 3 1.5 7.5l2.5 7.5l8 30q2 10 11 10h66l119 561
h-67q-8 3 -8 7l3 15l8 30q2 10 12 10h390q11 0 9 -9z" />
    <glyph glyph-name="F" unicode="F" horiz-adv-x="469" 
d="M529 676l-30 -140q-2 -11 -12 -11h-46q-9 3 -9 6l2 9l16 78h-183l-48 -229h200q12 0 8 -15l-8 -40q-2 -12 -14 -12h-201l-55 -260h80q10 0 7 -14l-8 -38q-2 -10 -12 -10h-226q-9 3 -9 7q0 3 1.5 7.5l2.5 7.5l8 30q2 10 11 10h66l119 561h-67q-8 3 -8 7l3 15l8 30
q2 10 12 10h383q11 0 9 -9z" />
    <glyph glyph-name="G" unicode="G" horiz-adv-x="538" 
d="M544 339l-4 -16l-8 -29q-4 -10 -12 -10h-63l-50 -235q-3 -16 -6.5 -19.5t-19.5 -10.5q-35 -17 -73.5 -25t-75.5 -8q-75 0 -120 40q-61 54 -61 174q0 87 19.5 172.5t54.5 155.5q48 97 117 139q52 32 116 32q54 0 107 -21.5t50 -42.5l-1 -8l-1 -4l-22 -98q-1 -6 -6 -9
q-1 0 -6 -1h-46q-4 0 -7 2t-2 4l2 7l1 4l17 74l-4 2q-16 9 -43.5 16.5t-48.5 7.5q-47 0 -86 -36q-45 -42 -78 -132q-24 -67 -37.5 -145t-13.5 -138q0 -27 6 -51.5t22 -43.5q29 -33 83 -33q17 0 39 2.5t53 11.5l43 217h-79q-8 3 -8 7l3 15l8 30q2 10 12 10h221q8 -3 8 -7z
" />
    <glyph glyph-name="H" unicode="H" horiz-adv-x="612" 
d="M668 678l-4 -16l-8 -29q-4 -10 -12 -10h-66l-119 -561h68q8 -3 8 -7l-4 -16l-8 -30q-2 -9 -12 -9h-210q-9 3 -9 7q0 3 1.5 7.5l2.5 7.5l8 30q2 10 11 10h66l55 260h-233l-55 -260h68q8 -3 8 -7l-4 -16l-8 -30q-2 -9 -12 -9h-210q-9 3 -9 7q0 3 1.5 7.5l2.5 7.5l8 30
q2 10 11 10h66l119 561h-67q-8 3 -8 7l3 15l8 30q2 10 12 10h212q8 -3 8 -7l-4 -16l-8 -29q-4 -10 -12 -10h-66l-50 -234h233l50 234h-67q-8 3 -8 7l3 15l8 30q2 10 12 10h212q8 -3 8 -7z" />
    <glyph glyph-name="I" unicode="I" horiz-adv-x="331" 
d="M398 678l-4 -16l-8 -29q-4 -10 -12 -10h-92l-119 -561h95q8 -3 8 -7l-4 -16l-8 -30q-2 -9 -12 -9h-263q-9 3 -9 7q0 3 1.5 7.5l2.5 7.5l8 30q2 10 11 10h92l119 561h-94q-8 3 -8 7l3 15l8 30q2 10 12 10h265q8 -3 8 -7z" />
    <glyph glyph-name="J" unicode="J" horiz-adv-x="426" 
d="M431 669l-97 -457q-12 -58 -25 -92.5t-30 -59.5q-22 -32 -54 -50q-42 -24 -96 -24q-72 0 -111 42q-34 37 -34 92q0 23 1.5 39t6 27t13.5 11h53q7 0 7 -8q-2 -8 -2 -11q-1 -5 -2 -20.5t-1 -20.5q0 -31 10 -50q18 -34 62 -34q55 0 84 41q20 28 32 85l94 444h-177
q-3 1 -5.5 2t-2.5 6l3 14l8 30q2 10 12 10h242q12 0 9 -16z" />
    <glyph glyph-name="K" unicode="K" horiz-adv-x="548" 
d="M618 678l-4 -16l-8 -29q-4 -10 -12 -10h-41l-257 -266l154 -295h52q8 -3 8 -7l-4 -16l-8 -30q-2 -9 -12 -9h-199q-9 3 -9 7q0 3 1.5 7.5l2.5 7.5l8 30q2 10 11 10h59l-148 291l-64 -291h68q8 -3 8 -7l-4 -16l-8 -30q-2 -9 -12 -9h-210q-9 3 -9 7q0 3 1.5 7.5l2.5 7.5
l8 30q2 10 11 10h66l119 561h-67q-8 3 -8 7l3 15l8 30q2 10 12 10h212q8 -3 8 -7l-4 -16l-8 -29q-4 -10 -12 -10h-66l-55 -260l251 260h-51q-8 3 -8 7l3 15l8 30q2 10 12 10h183q8 -3 8 -7z" />
    <glyph glyph-name="L" unicode="L" horiz-adv-x="481" 
d="M453 129q0 -2 -7 -14l-61 -103q-4 -7 -9 -9.5t-9 -2.5h-378q1 0 -2 0t-4 2l-2 5q0 3 1.5 7.5l2.5 7.5l8 30q2 10 11 10h66l119 561h-67q-8 3 -8 7l3 15l8 30q2 10 12 10h212q8 -3 8 -7l-4 -16l-8 -29q-4 -10 -12 -10h-66l-118 -556h192l51 85q6 10 11 10l8 -3l36 -21
q6 -5 6 -9z" />
    <glyph glyph-name="M" unicode="M" horiz-adv-x="685" 
d="M725 678l-4 -16l-8 -29q-2 -11 -12 -10h-64l-88 -561h68q8 -3 8 -7l-4 -16l-8 -30q-2 -9 -12 -9h-207q-9 3 -9 7q0 3 1.5 7.5l2.5 7.5l8 30q2 10 11 10h65l86 466l11 51q-9 -20 -11 -23.5t-14 -27.5l-190 -351q-3 -5 -5 -9q-5 -8 -14 -8h-29h-8q-5 2 -6 13l-37 355l-3 32
l-2 25q-1 -22 -4.5 -34.5t-6.5 -22.5l-111 -466h68q8 -3 8 -7l-4 -16l-8 -30q-2 -9 -12 -9h-207q-9 3 -9 7q0 3 1.5 7.5l2.5 7.5l8 30q2 10 11 10h65l151 561h-67q-8 3 -8 7l3 15l8 30q2 10 12 10h134q13 0 14 -12l40 -346l1 -11l2 -42q4 12 13.5 30.5t11.5 22.5l188 349
q5 9 15 9h146q8 -3 8 -7z" />
    <glyph glyph-name="N" unicode="N" horiz-adv-x="608" 
d="M670 678l-4 -16l-8 -29q-4 -10 -12 -10h-64l-126 -593q-6 -22 -6 -23q-4 -7 -12 -7h-46q-17 0 -20 12l-115 508q-3 11 -5.5 22t-2.5 49q-1 -20 -4.5 -39t-7.5 -36l-97 -454h66q8 -3 8 -7l-4 -16l-8 -30q-2 -9 -12 -9h-200q-9 3 -9 7q0 3 1.5 7.5l2.5 7.5l8 30q2 10 11 10
h66l119 561h-65q-3 1 -5.5 2t-2.5 4v2q3 7 3 14l8 30q2 10 12 10h138q11 0 14 -12l109 -478q4 -16 6.5 -37t3.5 -38q5 31 7 45.5t6 35.5l89 422h-67q-8 3 -8 7l3 15l8 30q2 10 12 10h202q8 -3 8 -7z" />
    <glyph glyph-name="O" unicode="O" horiz-adv-x="537" 
d="M522 497q0 -131 -34 -249q-38 -130 -105 -197q-35 -35 -73 -50t-87 -15t-80.5 14.5t-54 46.5t-29.5 64.5t-7 75.5q0 132 32 245q37 130 106 200q34 34 72.5 50.5t89.5 16.5q41 0 72.5 -10.5t56.5 -40.5t33 -66.5t8 -84.5zM440 505q0 39 -4 56q-7 29 -29 50t-61 21
q-42 0 -74 -24q-38 -28 -69 -94t-50 -164.5t-19 -178.5q0 -26 4.5 -47.5t17.5 -38.5q24 -32 74 -32q51 0 87 35q31 31 58 96q34 81 49.5 163.5t15.5 157.5z" />
    <glyph glyph-name="P" unicode="P" horiz-adv-x="523" 
d="M523 538q0 -68 -30 -126q-23 -45 -61 -75q-31 -25 -70 -35.5t-92 -10.5h-73l-49 -229h78q8 -3 8 -7l-4 -16l-8 -30q-2 -9 -12 -9h-220q-9 3 -9 7q0 3 1.5 7.5l2.5 7.5l8 30q2 10 11 10h66l119 561h-67q-8 3 -8 7l3 15l8 30q2 10 11 10h220q33 0 63.5 -5t53.5 -22
q31 -23 43 -64q7 -24 7 -56zM441 523q0 33 -7.5 52.5t-19 28.5t-24.5 11.5t-27 2.5h-96l-55 -260h62q46 0 72.5 9t42.5 25q23 22 37.5 57t14.5 74z" />
    <glyph glyph-name="Q" unicode="Q" horiz-adv-x="537" 
d="M523 504q0 -83 -18.5 -176t-47.5 -161q-15 -35 -28 -56q-17 -27 -44 -54q19 -23 37 -39q5 -4 34 -27q10 -8 21 -17t11 -15q0 -5 -3 -8q-2 0 -3 -1l-46 -25l-10 -3q-12 0 -28 12q-27 21 -71 78q-23 -11 -38 -16q-33 -10 -72 -10t-67 10q-39 14 -64 48q-19 26 -26.5 63.5
t-7.5 77.5q0 129 31 240q38 135 112 207q35 33 73.5 50t88.5 17q38 0 63 -8q37 -12 63 -43q23 -28 33 -69q7 -30 7 -75zM441 510q0 28 -4 51.5t-19 42.5q-22 28 -63 28q-42 0 -77 -24q-41 -28 -73 -92q-27 -54 -49 -156t-22 -174q0 -28 3.5 -54.5t13.5 -44t28 -26t39 -8.5
q54 0 95 37q33 30 61.5 91t47.5 153.5t19 175.5z" />
    <glyph glyph-name="R" unicode="R" horiz-adv-x="529" 
d="M523 543q0 -44 -13 -81.5t-36 -68t-56 -49.5t-69 -26l88 -256h62l6 -2t2 -5l-7 -45q-2 -10 -14 -10h-97q-15 0 -19 10l-99 301h-70l-53 -249h78q8 -3 8 -7l-4 -16l-8 -30q-2 -9 -12 -9h-220q-9 3 -9 7q0 3 1.5 7.5l2.5 7.5l8 30q2 10 11 10h66l119 561h-67q-8 3 -8 7
l3 15l8 30q2 10 11 10h214q57 0 88.5 -10t50.5 -29q15 -16 24.5 -43t9.5 -60zM441 527q0 57 -29 78q-18 13 -49 13h-96l-51 -240h61q55 0 86 14q38 17 60 62q9 19 13.5 38.5t4.5 34.5z" />
    <glyph glyph-name="S" unicode="S" horiz-adv-x="435" 
d="M462 635l-25 -115q-1 -4 -2 -5q-4 -6 -10 -6h-48q-7 2 -7 6l2 12l17 79l-5 3q-18 11 -41.5 17t-42.5 6q-50 0 -84 -28q-40 -33 -40 -94q0 -26 7 -40.5t28 -33.5q12 -10 48 -38q17 -13 36 -29q42 -35 58 -59q33 -48 33 -111q0 -94 -63.5 -153.5t-165.5 -59.5q-49 0 -89 13
q-19 6 -49 22q-12 6 -17 12q-10 10 -7 21l27 125q1 4 3.5 7.5t8.5 3.5h47q4 0 8 -7l-3 -13l-19 -91l8 -4q18 -9 42 -15.5t49 -6.5q65 0 101.5 40.5t36.5 97.5q0 47 -29 84q-19 24 -64 58q-60 46 -77 66q-40 47 -40 109q0 86 63 141q31 27 69 38.5t80 11.5q33 0 71.5 -7.5
t63.5 -22.5q13 -8 18 -17t3 -17z" />
    <glyph glyph-name="T" unicode="T" horiz-adv-x="444" 
d="M515 678l-3 -15l-32 -151q-2 -10 -13 -10h-46q-8 3 -8 7l3 15l20 94h-98l-119 -556h76q8 -3 8 -7l-4 -16l-8 -30q-2 -9 -12 -9h-218q-9 3 -9 7q0 3 1.5 7.5l2.5 7.5l8 30q2 10 11 10h66l119 556h-98l-22 -106q-2 -10 -13 -10h-46q-8 3 -8 7l3 15l31 150q2 11 14 11h386
q8 -3 8 -7z" />
    <glyph glyph-name="U" unicode="U" horiz-adv-x="600" 
d="M674 678l-4 -16l-8 -29q-4 -10 -12 -10h-66l-92 -435q-19 -89 -61 -134q-63 -68 -189 -68q-66 0 -104 19q-66 33 -66 121q0 21 1 30t6 32l92 435h-67q-8 3 -8 7l3 15l8 30q2 10 12 10h212q8 -3 8 -7l-4 -16l-8 -29q-4 -10 -12 -10h-66l-92 -435q-5 -23 -6.5 -32.5
t-1.5 -23.5q0 -45 33 -64q26 -15 71 -15q55 0 91 22q53 33 70 113l92 435h-67q-8 3 -8 7l3 15l8 30q2 10 12 10h212q8 -3 8 -7z" />
    <glyph glyph-name="V" unicode="V" horiz-adv-x="520" 
d="M611 678l-4 -16l-8 -29q-4 -10 -12 -10h-39l-296 -613q-3 -7 -8 -8t-11 -2h-59q-15 0 -15 13l-34 610h-45q-8 3 -8 7l3 15l8 30q2 10 12 10h190q8 -3 8 -7l-4 -16l-8 -29q-4 -10 -12 -10h-62l14 -471q0 -17 -0.5 -32.5t-0.5 -29.5v-14q3 7 13.5 33t17.5 43l217 471h-63
q-8 3 -8 7l3 15l8 30q2 10 12 10h183q8 -3 8 -7z" />
    <glyph glyph-name="W" unicode="W" horiz-adv-x="742" 
d="M821 678l-4 -16l-8 -29q-4 -10 -12 -10h-45l-258 -613q-5 -10 -17 -10h-63q-8 5 -8 11l28 532l-213 -524q-5 -12 -8.5 -15.5t-10.5 -3.5h-60q-13 0 -13 14l14 609h-52q-8 3 -8 7l3 15l8 30q2 10 12 10h190q8 -3 8 -7l-4 -16l-8 -29q-4 -10 -12 -10h-62l-21 -445
q0 -7 -2 -28t-9 -80q9 31 18.5 60.5t17.5 47.5l205 497q3 7 7 8l8 2h45q14 0 14 -11l-22 -501l-9 -96q10 32 19.5 62t11.5 34l177 450h-63q-8 3 -8 7l3 15l8 30q2 10 12 10h183q8 -3 8 -7z" />
    <glyph glyph-name="X" unicode="X" horiz-adv-x="502" 
d="M584 678l-4 -16l-8 -29q-4 -10 -12 -10h-43l-205 -265l102 -296h58q8 -3 8 -7l-4 -16l-8 -30q-2 -9 -12 -9h-201q-9 3 -9 7q0 3 1.5 7.5l2.5 7.5l8 30q2 10 11 10h59l-71 221l-164 -221h68q8 -3 8 -7l-4 -16l-8 -30q-2 -9 -12 -9h-203q-9 3 -9 7q0 3 1.5 7.5l2.5 7.5
l8 30q2 10 11 10h49l222 296l-88 265h-58q-8 3 -8 7l3 15l8 30q2 10 12 10h197q8 -3 8 -7l-4 -16l-8 -29q-4 -10 -12 -10h-55l48 -146l16 -52l8 15q8 14 16 27q5 8 10 14l108 142h-60q-8 3 -8 7l3 15l8 30q2 10 12 10h193q8 -3 8 -7z" />
    <glyph glyph-name="Y" unicode="Y" horiz-adv-x="490" 
d="M581 678l-4 -16l-8 -29q-4 -10 -12 -10h-38l-232 -333l-48 -228h76q8 -3 8 -7l-4 -16l-8 -30q-2 -9 -12 -9h-218q-9 3 -9 7q0 3 1.5 7.5l2.5 7.5l8 30q2 10 11 10h66l47 228l-91 333h-45q-8 3 -8 7l3 15l8 30q2 10 12 10h178q8 -3 8 -7l-4 -16l-8 -29q-4 -10 -12 -10h-55
l55 -211q2 -8 5 -31t4 -31l5 6q6 13 14 26q3 5 17 27l136 214h-60q-8 3 -8 7l3 15l8 30q2 10 12 10h188q8 -3 8 -7z" />
    <glyph glyph-name="Z" unicode="Z" horiz-adv-x="463" 
d="M514 667l-9 -43l-421 -557h252l55 90q5 6 8 6q5 0 8 -3l34 -24q10 -7 4 -16l-69 -108q-8 -12 -19 -12h-362q-11 3 -10 8l13 63l413 547h-214l-17 -84q-2 -10 -12 -10h-46q-5 0 -9 7l2 11l28 133q1 7 5 8t9 2h349q10 0 10 -8q0 -4 -2 -10z" />
    <glyph glyph-name="bracketleft" unicode="[" horiz-adv-x="424" 
d="M447 703l-8 -38q-2 -10 -12 -10h-112l-169 -795h120q10 0 7 -14l-8 -38q-2 -10 -12 -10h-172q-21 0 -21 13l4 20l186 872q3 14 15 14h175q10 0 7 -14z" />
    <glyph glyph-name="backslash" unicode="\" horiz-adv-x="444" 
d="M350 -178q1 -8 1 -11q0 -13 -14 -13h-39q-12 0 -13 11l-106 884q-1 8 -1 11q0 13 14 13h39q12 0 13 -11z" />
    <glyph glyph-name="bracketright" unicode="]" horiz-adv-x="425" 
d="M364 704l-4 -20l-186 -872q-3 -14 -15 -14h-175q-10 0 -7 14l8 38q2 10 12 10h112l169 795h-120q-10 0 -7 14l8 38q2 10 12 10h172q21 0 21 -13z" />
    <glyph glyph-name="asciicircum" unicode="^" 
d="M460 345q0 -5 -10 -8l-48 -14l-5 -1q-8 3 -10 7l-116 258l-115 -258q-3 -6 -7 -6.5t-8 0.5l-48 14q-10 3 -10 8l5 13l143 319q4 8 13 8h55q9 0 13 -8l143 -319z" />
    <glyph glyph-name="underscore" unicode="_" 
d="M500 -125h-500v50h500v-50z" />
    <glyph glyph-name="grave" unicode="`" horiz-adv-x="333" 
d="M310 584q0 -3 -4 -7l-22 -22q-5 -5 -10 -5q-3 0 -4.5 1t-2.5 2l-131 80q-2 1 -4 6l4 7l49 51q7 7 11 7q7 -2 8 -4l103 -110z" />
    <glyph glyph-name="a" unicode="a" 
d="M449 45l-8 -35q-2 -10 -12 -10h-75q-26 0 -37.5 17t-11.5 42v18l1 16q-34 -55 -74.5 -81t-83.5 -26q-41 0 -70 25q-43 37 -43 122q0 51 13.5 109.5t36.5 108.5q33 70 81.5 106.5t105.5 36.5q37 0 63 -16q16 -10 35 -32l5 -6l14 31q4 9 9 9h44q10 0 7 -13l-68 -314
q-3 -13 -5 -33t-2 -34l1 -28h67q11 0 7 -13zM359 384q-20 20 -44 31.5t-46 11.5q-27 0 -52.5 -16.5t-47.5 -55.5q-25 -44 -41.5 -106t-16.5 -112q0 -36 9 -54q15 -30 52 -30q54 0 99 59q41 54 59 136z" />
    <glyph glyph-name="b" unicode="b" horiz-adv-x="492" 
d="M454 359q0 -61 -19.5 -130.5t-52.5 -131.5t-77 -88q-38 -23 -90 -23q-49 0 -104 22q-30 12 -62 32q-7 5 -7 10l2 9l127 600h-69q-8 3 -8 7l3 15l5 24q2 12 13 12h132q9 0 7 -7l-52 -245l-14 -49q16 20 32.5 33.5t35.5 23.5q39 21 84 21q68 0 95 -47q19 -33 19 -88z
M378 350q0 27 -9 45q-16 32 -57 32q-31 0 -58 -15q-21 -12 -40 -33.5t-32.5 -48.5t-18.5 -50l-44 -203q26 -11 53.5 -18.5t42.5 -7.5q37 0 66 27q22 20 40 56q6 11 12 25.5t16 44t19.5 74t9.5 72.5z" />
    <glyph glyph-name="c" unicode="c" horiz-adv-x="397" 
d="M406 440l-21 -98q-2 -11 -13 -11h-44q-9 0 -9 7l2 11l15 68l-3 1q-11 4 -23.5 6.5t-24.5 2.5q-35 0 -68 -20q-39 -24 -64 -70q-19 -35 -30.5 -89t-11.5 -94q0 -55 29 -79q23 -19 61 -19q34 0 66 15q30 18 38 22l10 4l8 -4l15 -35l3 -8q0 -5 -2.5 -7.5t-11.5 -8.5
q-34 -24 -74 -36t-77 -12q-33 0 -56 8q-32 11 -51.5 37t-26.5 59.5t-7 60.5q0 65 19 130t51 111q41 58 98 83q43 19 92 19q50 0 90 -20q22 -12 22 -25q0 -6 -1 -9z" />
    <glyph glyph-name="d" unicode="d" 
d="M500 696l-115 -543q-1 -3 -4 -29t-3 -38l1 -28h67q11 0 7 -13l-8 -35q-3 -10 -12 -10h-76q-18 0 -30 12q-8 8 -11.5 18.5t-4.5 20t-1 19.5v7v11q-28 -40 -63 -66q-48 -36 -101 -36q-51 0 -79 31q-34 37 -34 117q0 30 2 52q9 100 46 175.5t97 108.5q43 24 93 24
q29 0 54 -8t44 -19l10 -6l41 198h-72q-7 0 -7 7l2 10l6 29q2 12 13 12h129q11 0 11 -9q0 -4 -2 -12zM365 397l-11 7q-7 4 -21 10q-32 13 -59 13q-45 0 -75.5 -24.5t-50 -67.5t-29.5 -97.5t-10 -102.5t16 -65t45 -17q24 0 44 9q27 12 52.5 39.5t40.5 60.5t24 75z" />
    <glyph glyph-name="e" unicode="e" horiz-adv-x="444" 
d="M418 368q0 -97 -87 -140q-74 -37 -218 -37h-4l-1 -25q0 -52 23 -81t71 -29q38 0 76 14q22 8 50 25q14 9 17 9q5 0 8 -3q0 -2 1 -3l24 -36l2 -5q-1 -3 -3 -5.5t-12 -9.5q-43 -30 -85 -43t-88 -13q-74 0 -115 44q-44 47 -44 139q0 44 9 86t27 81q25 55 67 95q66 63 154 63
q61 0 94.5 -34.5t33.5 -91.5zM347 363q0 30 -15 48q-18 21 -54 21q-49 0 -86 -31q-54 -46 -74 -148q64 0 101.5 6t63.5 18q34 15 49 37.5t15 48.5z" />
    <glyph glyph-name="f" unicode="f" horiz-adv-x="314" 
d="M443 690l-18 -43q-3 -8 -19 -1q-19 9 -38.5 14.5t-38.5 5.5q-40 0 -60 -30q-13 -20 -23 -69l-18 -87h142q7 0 7 -7l-2 -8l-12 -31q-4 -12 -13 -12h-135l-85 -450q-9 -43 -19 -69q-18 -45 -51 -72q-43 -35 -116 -35q-35 0 -62 8q-9 3 -10 3q-7 4 -3 15l14 41q5 6 7 6
l18 -4q17 -4 24 -4.5t15 -0.5q27 0 49 11q30 15 45 48q3 8 8.5 27t7.5 30l86 446h-70q-8 2 -8 6l3 16l5 24q2 12 13 12h70l20 96q8 38 16 60q12 30 35 51.5t50 29t56 7.5q34 0 65 -8q21 -5 34 -12t11 -14z" />
    <glyph glyph-name="g" unicode="g" horiz-adv-x="491" 
d="M471 455q0 -3 -8 -13q-20 -25 -24 -33q-13 -25 -25 -79q-25 -112 -39 -194q-19 -109 -32 -172q-9 -42 -16 -62q-11 -32 -33 -56t-53 -38q-41 -18 -93 -18q-71 0 -140 32q-11 5 -16 7q-9 5 -9 10l4 12l17 43q1 3 4 4.5t5 1.5q5 0 15 -5q43 -22 74 -30t55 -8q62 0 93 53
q10 16 17 41q4 15 11 45q0 1 10 54q6 33 11 52l-2 2q-35 -58 -77 -84q-33 -20 -69 -20q-41 0 -70 25q-43 38 -43 122q0 81 29 166t77 130q29 27 61.5 39t64.5 12q33 0 58.5 -11t58.5 -36q8 15 15.5 24.5t14.5 14.5t14 5q5 0 8 -3l28 -26q4 -5 4 -7zM355 390q-21 18 -46 27.5
t-46 9.5q-20 0 -39.5 -8t-37.5 -30q-30 -37 -51 -110.5t-21 -130.5q0 -81 57 -81q25 0 49.5 14.5t44.5 40t36.5 60.5t23.5 66z" />
    <glyph glyph-name="h" unicode="h" horiz-adv-x="544" 
d="M473 45l-8 -35q-3 -10 -11 -10h-77q-15 0 -25 5t-17.5 15t-7.5 28l4 31l56 265l4 24t2 16q0 43 -46 43q-29 0 -56.5 -14.5t-52 -40.5t-44.5 -66.5t-27 -77.5l-46 -218q-2 -10 -12 -10h-52q-8 0 -8 8l3 14l135 637h-72q-7 0 -7 7l2 10l6 29q2 12 13 12h129q11 0 11 -9
q0 -4 -2 -12l-49 -231q-4 -17 -10 -38t-14 -39q38 48 76 74q24 16 48.5 24t57.5 8q50 0 74 -26q19 -21 19 -54q0 -15 -2.5 -29.5t-7.5 -40.5l-61 -286h67q11 0 8 -13z" />
    <glyph glyph-name="i" unicode="i" horiz-adv-x="278" 
d="M272 661q0 -24 -16 -40t-40 -16t-40 16t-16 40q0 22 16 39t40 17t40 -16t16 -40zM213 459l-85 -401h66q11 0 8 -13l-8 -35q-3 -10 -11 -10h-77q-15 0 -25 5t-17.5 15t-7.5 28l4 31l73 343h-80q-8 3 -8 7l2 11l6 28q2 12 13 12h138q11 0 11 -10v-6q-2 -4 -2 -5z" />
    <glyph glyph-name="j" unicode="j" horiz-adv-x="291" 
d="M293 661q0 -24 -16 -40t-40 -16t-40 16t-16 40q0 22 16 39t40 17t40 -16t16 -40zM236 470l-2 -11l-103 -483q-9 -41 -18 -67q-16 -47 -38 -71q-42 -48 -113 -48q-27 0 -50 5.5t-49 19.5q-5 2 -9 6t-4 7l3 9l18 39q2 4 5 5.5t4 1.5q4 0 18 -7q38 -19 68 -19q27 0 43 13.5
t26 33.5t16 43t14 59l89 416h-80q-8 3 -8 7l3 15l5 24q2 12 13 12h138q11 0 11 -10z" />
    <glyph glyph-name="k" unicode="k" horiz-adv-x="510" 
d="M495 473l-2 -11l-6 -28q-2 -12 -13 -12h-31l-195 -167l138 -197h56q3 0 6 -3q0 -2 1 -3l-2 -12l-6 -28q-2 -12 -13 -12h-79q-11 0 -15 7l-163 242l-50 -239q-2 -10 -12 -10h-52q-8 2 -8 6l3 16l136 637h-71q-7 0 -7 7l3 15l5 24q2 12 13 12h132q9 0 7 -7l-95 -444
l175 156h-54q-4 0 -8 7l2 10l6 29q2 12 13 12h179q7 0 7 -7z" />
    <glyph glyph-name="l" unicode="l" horiz-adv-x="272" 
d="M257 710l-112 -528q-5 -24 -10.5 -55t-5.5 -46q0 -19 8 -26t20 -7q20 0 42 12q8 5 13 5q6 -4 6 -7l7 -39q1 -8 -14.5 -16t-34.5 -12.5t-40 -4.5q-31 0 -50 11q-31 18 -31 65q0 24 2.5 42.5t13.5 67.5l104 487h-78q-8 3 -8 7l3 15l5 24q2 12 13 12h140q9 0 7 -7z" />
    <glyph glyph-name="m" unicode="m" horiz-adv-x="768" 
d="M697 45l-8 -35q-3 -10 -11 -10h-77q-29 0 -42 20q-8 13 -8 25v8l2 15l59 276l4 24t2 16q0 18 -10 30.5t-33 12.5q-41 0 -73 -24q-20 -15 -35 -38q-20 -29 -33.5 -69t-23.5 -85l-43 -201q-2 -10 -12 -10h-52q-8 0 -8 8l3 14l68 322l4 24t2 16q0 17 -8 28q-11 15 -34 15
q-33 0 -66 -22.5t-56 -64.5q-28 -48 -41 -112l-46 -218q-2 -10 -12 -10h-52q-8 0 -8 8l3 14l71 335q2 6 3.5 19t1.5 28l-1 18h-69q-4 0 -8 7l2 9l6 30q2 12 13 12h103q16 0 19 -29.5t3 -46.5l-1 -16q14 21 32.5 41.5t36.5 34.5q23 17 46.5 23.5t46.5 6.5q40 0 62 -26t22 -65
q28 42 71.5 66.5t89.5 24.5q39 0 65.5 -20.5t26.5 -62.5q0 -15 -1 -23t-9 -44l-61 -286h66q11 0 8 -13z" />
    <glyph glyph-name="n" unicode="n" horiz-adv-x="544" 
d="M473 45l-8 -35q-3 -10 -11 -10h-77q-29 0 -42 20q-8 13 -8 25v8l2 15l58 276l4 24t2 16q0 15 -6 25q-11 18 -38 18q-31 0 -59 -14q-42 -21 -76 -73q-15 -24 -28 -53.5t-19 -58.5l-46 -218q-2 -10 -12 -10h-52q-8 0 -8 8l3 14l71 335q1 7 3 23t2 24l-1 18h-69q-4 0 -8 7
l2 9l6 30q2 12 13 12h103q16 0 19 -29.5t3 -46.5l-1 -16q34 47 72 73q49 33 108 33q47 0 72 -24q22 -21 22 -56q0 -25 -4 -42.5t-6 -27.5l-60 -286h66q11 0 8 -13z" />
    <glyph glyph-name="o" unicode="o" horiz-adv-x="481" 
d="M442 325q0 -58 -15.5 -117t-46.5 -108q-38 -61 -97 -90q-48 -24 -99 -24q-33 0 -58.5 8.5t-49.5 31t-33.5 57.5t-9.5 70q0 60 15 118.5t44 105.5q40 65 98 94q46 23 99 23q38 0 68 -13q23 -10 42 -29q43 -43 43 -127zM366 324q0 26 -5 45.5t-23 35.5q-12 11 -28 16.5
t-32 5.5q-33 0 -63 -17q-38 -22 -63 -68q-19 -36 -31 -88t-12 -99q0 -25 4 -41.5t15 -31t25 -22t37 -7.5q35 0 67 18q39 22 64 66q22 38 33.5 88t11.5 99z" />
    <glyph glyph-name="p" unicode="p" horiz-adv-x="509" 
d="M470 346q0 -46 -6 -87q-13 -91 -48.5 -154.5t-89.5 -93.5q-46 -25 -97 -25q-27 0 -47.5 6t-45.5 20l-12 7l-35 -163h68q7 0 7 -8q0 -4 -2 -10l-7 -30q-2 -10 -12 -10h-194q-8 3 -8 7l3 15l5 24q2 12 13 12h55l101 471q4 18 6 32t2 30l-2 33h-71q-8 3 -8 7l3 15l5 24
q2 12 13 12h99q20 0 26 -14q3 -7 6 -39l1 -10q37 38 76 57.5t83 19.5q65 0 93 -50q20 -36 20 -98zM394 343q0 35 -8 53q-14 31 -52 31q-50 0 -93 -43q-50 -50 -69 -141l-34 -160l10 -6q20 -12 40 -18t39 -6q38 0 64.5 16t49.5 53q30 50 44 125q9 49 9 96z" />
    <glyph glyph-name="q" unicode="q" horiz-adv-x="488" 
d="M473 462q0 -2 -8 -13q-14 -16 -25 -43q-14 -32 -21 -69l-103 -481h61q9 0 9 -8q0 -2 -2 -10l-7 -30q-2 -10 -12 -10h-195q-8 0 -8 9l2 10l6 27q3 12 13 12h60l47 215l-2 2q-64 -87 -145 -87q-64 0 -91 60q-17 38 -17 89q0 126 51 227q35 70 86 103q45 29 100 29
q29 0 56.5 -10.5t46.5 -25.5l15 -12l4 7q9 14 16 23q14 18 21 18l6 -3l32 -21q4 -5 4 -8zM359 395q-18 14 -41 23t-45 9q-46 0 -76 -25q-22 -18 -41 -55q-22 -44 -33.5 -97.5t-11.5 -103.5q0 -51 18 -74q15 -19 44 -19q23 0 44 10q29 13 52 43q16 19 31.5 51t23.5 71z" />
    <glyph glyph-name="r" unicode="r" horiz-adv-x="345" 
d="M368 481l-3 -10l-20 -46q-4 -9 -14 -5t-19 4q-49 0 -95 -69q-18 -27 -29 -57t-19 -70l-46 -218q-3 -10 -12 -10h-52q-10 0 -7 13l71 336q4 20 4 45v22v6h-69q-8 3 -8 7l3 15l5 24q2 12 13 12h103q10 0 16 -15t6 -46l-1 -24l2 -2q23 46 60.5 73.5t74.5 27.5q20 0 30 -6
q6 -2 6 -7z" />
    <glyph glyph-name="s" unicode="s" horiz-adv-x="389" 
d="M366 443l-19 -91q-2 -10 -13 -10h-44q-12 0 -8 15l14 63q-27 7 -48 7q-38 0 -61 -18.5t-23 -52.5q0 -25 18 -44q13 -13 48 -36q42 -27 58 -45q32 -36 32 -85q0 -65 -42 -109q-48 -51 -134 -51q-43 0 -83 13q-23 8 -48 22q-12 7 -12 15q3 11 4 18l19 92q2 10 13 10h45
q4 0 8 -7l-2 -10l-14 -69q37 -17 82 -17q41 0 64.5 24.5t23.5 56.5q0 36 -31 63q-9 8 -40 29q-44 30 -59 47q-26 30 -26 73q0 34 13.5 63t42.5 51q21 16 52.5 25t60.5 9q42 0 78 -14t31 -37z" />
    <glyph glyph-name="t" unicode="t" horiz-adv-x="333" 
d="M354 467l-19 -37q-1 -3 -2 -5.5t-6 -2.5h-127l-59 -275q-2 -14 -3.5 -24t-1.5 -24q0 -13 2 -20.5t9 -14.5t16.5 -9t16.5 -2q19 0 42 6.5t42 15.5l13 4q3 0 6 -7l7 -41q1 -7 -18 -18t-51.5 -19t-64.5 -8q-29 0 -48.5 9t-29.5 23q-18 23 -18 63q0 13 2 25t7 39l59 277h-73
q-4 0 -8 7l2 15l5 24q3 12 14 12h73l28 138q2 9 11 11l53 15q10 2 12 -1q0 -2 1 -3q0 -3 -3 -12l-31 -148h137q5 0 6 -4t-1 -9z" />
    <glyph glyph-name="u" unicode="u" horiz-adv-x="534" 
d="M480 478l-74 -347q-3 -12 -5.5 -31t-2.5 -21l1 -14l1 -7h68q11 0 8 -13l-8 -35q-3 -10 -11 -10h-58q-19 0 -29.5 3t-18.5 10q-13 12 -15 35v26v6q-33 -45 -78.5 -69.5t-95.5 -24.5q-51 0 -78 36q-22 30 -22 69q0 11 2.5 25.5t6.5 32.5l58 273h-72q-8 3 -8 7l2 11l5 28
q2 12 13 12h131q11 0 11 -10v-6q-2 -4 -2 -5l-62 -289q-3 -18 -6 -33.5t-3 -27.5q0 -56 51 -56q26 0 52.5 12.5t47 30t36.5 47.5q20 38 33 100l46 218q2 10 10 12l52 13q6 1 10.5 0.5t3.5 -8.5z" />
    <glyph glyph-name="v" unicode="v" horiz-adv-x="440" 
d="M452 458l-264 -457q-5 -8 -11 -8h-37q-5 0 -8 10l-53 419h-56q-8 3 -8 7l3 14l5 25q2 12 13 12h104q4 -1 8 -3.5t4 -11.5l29 -297l4 -66q15 30 26 50q8 14 17 29l157 300q6 6 8 6l56 -14q6 -3 6 -7q0 -2 -3 -8z" />
    <glyph glyph-name="w" unicode="w" horiz-adv-x="616" 
d="M630 466l-3 -8l-221 -452q-7 -13 -19 -13h-33q-10 0 -10 11l-11 358l-33 -69l-150 -292q-2 -4 -11 -8h-37q-8 0 -8 11l-15 418h-56q-8 2 -8 6l2 11l6 29q2 12 13 12h103q13 0 13 -15l-5 -363l19 38l160 326q8 14 16 14h41q6 0 6 -11l6 -380l40 97l125 295q4 7 9 6l54 -14
q7 -2 7 -7z" />
    <glyph glyph-name="x" unicode="x" horiz-adv-x="426" 
d="M439 459q0 -3 -4 -7l-186 -203l87 -191h55q4 0 8 -7l-2 -10l-6 -29q-2 -12 -13 -12h-89q-8 0 -13 9l-66 151l-10 27l-18 -23l-135 -163q-5 -8 -11 -8q-4 0 -7 1.5l-7 3.5l-44 18q-3 1 -4 3t-2 3q4 7 5 8l199 219l-79 173h-56q-8 3 -8 7l2 11l6 28q2 12 13 12h89
q7 0 10 -7l72 -169l22 31l122 148q2 2 4 3.5t3 1.5l7 -2l52 -21q4 -4 4 -6z" />
    <glyph glyph-name="y" unicode="y" horiz-adv-x="463" 
d="M468 460l-2 -8l-187 -418q-14 -31 -35 -72t-34 -62q-19 -31 -37 -50q-25 -27 -59.5 -43.5t-73.5 -16.5q-26 0 -49.5 8t-40.5 19q-7 4 -9.5 8t-4.5 7q0 2 5 10l23 38q4 5 7 5t7 -2t7 -4q15 -10 33.5 -16t32.5 -6q37 0 66 28q20 19 38 52l34 63h-36q-10 0 -12 10l-60 412
h-59q-6 0 -7 5q1 6 1 8l7 34q2 11 13 11h106q8 0 10 -9l56 -432l194 442q2 3 4 4l4 2l6 -2l47 -19q5 -4 5 -6z" />
    <glyph glyph-name="z" unicode="z" horiz-adv-x="409" 
d="M413 467l-9 -39l-315 -366h178l39 62q7 10 13 10q3 0 9 -4l30 -19q4 -5 4 -7l-4 -11l-52 -82q-8 -11 -20 -11h-296q-6 0 -7 5q1 6 1 8l9 39l322 366h-160l-14 -64q-2 -11 -12 -11h-42q-9 0 -9 7q0 3 2 11l23 109q2 10 12 10h292q6 0 6.5 -3.5t-0.5 -9.5z" />
    <glyph glyph-name="braceleft" unicode="{" horiz-adv-x="463" 
d="M497 709l-8 -42q-3 -12 -15 -12h-28q-19 0 -36 -4.5t-29 -13.5q-17 -13 -25.5 -33t-12.5 -40l-38 -178q-8 -40 -25 -66q-26 -40 -73 -56l4 -2q19 -10 33.5 -29.5t14.5 -47.5l-6 -40l-42 -199q-4 -14 -4 -34l3 -22q6 -18 22 -24t45 -6h28q11 0 11 -10q0 -4 -2 -10l-7 -30
q-3 -12 -15 -12h-19q-57 0 -84.5 12t-42.5 34.5t-15 55.5q0 7 1 17t5 29l42 199q2 8 2.5 17t1.5 15q0 34 -26 48q-17 9 -45 9h-22q-10 0 -10 9v3l2 5l7 33q2 9 4.5 10.5t9.5 1.5h22q20 0 36 3.5t32.5 16t26.5 34.5q7 15 11 36l38 178q8 36 16 55q13 31 37 54t60.5 33.5
t86.5 10.5h18q12 0 10 -8z" />
    <glyph glyph-name="bar" unicode="|" horiz-adv-x="392" 
d="M252 -236q0 -14 -13 -14h-46q-13 0 -13 14v972q0 14 13 14h46q13 0 13 -14v-972z" />
    <glyph glyph-name="braceright" unicode="}" horiz-adv-x="463" 
d="M382 269l-2 -5l-7 -33q-2 -9 -4.5 -10.5t-9.5 -1.5h-22q-20 0 -36 -3.5t-32.5 -16t-25 -31t-12.5 -39.5l-38 -178q-8 -36 -16 -55q-13 -31 -37 -54t-60.5 -33.5t-86.5 -10.5h-18q-12 0 -10 8l8 42q3 12 15 12h28q19 0 36 4.5t29 13.5q17 13 27 37q7 16 11 36l38 178
q8 40 25 66q26 40 73 56l-4 2q-19 10 -32 27q-16 22 -16 50l6 40l42 199q4 14 4 34l-3 22q-6 18 -22 24t-45 6h-28q-11 0 -11 10q0 4 2 10l7 30q3 12 15 12h19q57 0 84.5 -12t42.5 -34.5t15 -55.5q0 -7 -1 -17t-5 -29l-42 -199q-2 -8 -2.5 -17t-1.5 -15q0 -34 26 -48
q17 -9 45 -9h22q10 0 10 -9v-3z" />
    <glyph glyph-name="asciitilde" unicode="~" horiz-adv-x="492" 
d="M502 290q-1 -3 -3 -6t-8 -10q-13 -14 -26.5 -29t-33.5 -28q-42 -28 -90 -28q-27 0 -44.5 6t-41 22.5t-33.5 21.5q-23 12 -46 12q-32 0 -63 -21q-18 -12 -31 -27q-8 -9 -13 -9q-3 0 -9 4l-24 17q-6 4 -6 8q0 1 12 18q7 10 25 26t28 23q23 17 46 25.5t50 8.5q30 0 55 -10
q14 -6 40 -23q12 -8 31.5 -19t40.5 -11q27 0 46 10t44 37q10 10 15 10q3 0 9 -4l24 -17q6 -6 6 -7z" />
    <glyph glyph-name="c128" horiz-adv-x="627" 
d="M551 279q0 -100 -41 -182q-55 -111 -160 -111q-28 0 -52 7l-22.5 9t-12.5 16l19 43q5 13 14 13q6 0 11 -4q13 -8 26 -12.5t29 -4.5q39 0 64 39q17 26 31 81q6 22 9 46t3 47q0 21 -6.5 36.5t-24.5 28.5q-12 8 -29 12.5t-37 4.5q-24 0 -48.5 -7t-57.5 -26l-65 -306
q-2 -9 -12 -9h-135q-9 3 -9 7q0 3 1.5 7.5l2.5 7.5l8 30q2 10 11 10h66l118 556h-88l-22 -106q-2 -10 -13 -10h-46q-8 3 -8 7l3 15l31 150q2 11 14 11h386q8 -3 8 -7l-3 -15l-32 -151q-2 -10 -13 -10h-46q-8 3 -8 7l3 15l20 94h-108l-50 -236q74 33 125 33q27 0 53.5 -7
t45.5 -22q27 -20 37 -48.5t10 -58.5z" />
    <glyph glyph-name="c129" horiz-adv-x="469" 
d="M536 818q0 -1 -1 -4t-7 -6l-180 -72l-8 -2q-4 0 -5.5 2t-1.5 3l-14 23l-2 7q0 1 6 7l167 103l8 3q7 -5 8 -7l28 -51zM529 676l-35 -163q-2 -11 -12 -11h-46q-9 3 -9 6l2 9l21 101h-183l-118 -556h80q10 0 7 -14l-8 -38q-2 -10 -12 -10h-226q-9 3 -9 7q0 3 1.5 7.5
l2.5 7.5l8 30q2 10 11 10h66l119 561h-67q-8 3 -8 7l3 15l8 30q2 10 12 10h383q11 0 9 -9z" />
    <glyph glyph-name="c141" horiz-adv-x="585" 
d="M574 818q0 -1 -1 -4t-7 -6l-180 -72l-8 -2q-4 0 -5.5 2t-1.5 3l-14 23l-2 7q0 1 6 7l167 103l8 3q7 -5 8 -7l28 -51zM625 643q2 -14 -18 -17l-23 -3q-20 -3 -36 -14q-8 -6 -14.5 -14t-17.5 -30q-7 -15 -16 -35l-24 -56q-22 -51 -35 -69q-27 -38 -72 -54q17 -10 30 -24
q26 -28 30 -64l16 -130q4 -33 5.5 -39t10.5 -16.5t29 -13.5l18 -3q10 -2 11.5 -6.5t-0.5 -9.5l-23 -48q-5 -11 -16 -11q-4 0 -18 2q-30 6 -47 14t-28.5 27t-16 45.5t-4.5 57.5l-8 99q0 35 -17 59q-23 32 -70 32h-71l-55 -260h63q13 0 10 -12l-8 -38q-1 -7 -5 -9.5t-10 -2.5
h-204q-12 0 -9 12l8 38q2 12 14 12h63l119 561h-63q-12 0 -9 12l8 38q2 12 14 12h204q13 0 10 -12l-8 -38q-1 -7 -5 -9.5t-10 -2.5h-63l-50 -234h90q28 0 45 12q28 20 52 76l32 76q18 43 32.5 67t34 40.5t41.5 24.5t45 11l16 2q15 4 17 -10z" />
    <glyph glyph-name="c142" horiz-adv-x="662" 
d="M594 50l-8 -38q-1 -7 -5 -9.5t-10 -2.5h-204q-12 0 -9 12l8 38q2 12 14 12h63l41 193q1 7 2.5 14t1.5 16q0 24 -14 41q-9 12 -26.5 19.5t-44.5 7.5q-34 0 -75 -11q-31 -8 -61 -22l-55 -258h76q8 -3 8 -7l-4 -16l-8 -30q-2 -9 -12 -9h-218q-9 3 -9 7q0 3 1.5 7.5l2.5 7.5
l8 30q2 10 11 10h66l118 556h-88l-22 -106q-2 -10 -13 -10h-46q-8 3 -8 7l3 15l31 150q2 11 14 11h386q8 -3 8 -7l-3 -15l-32 -151q-2 -10 -13 -10h-46q-8 3 -8 7l3 15l20 94h-108l-49 -233q34 16 70.5 25.5t72.5 9.5t61.5 -7.5t44.5 -24.5t27.5 -40t8.5 -52q0 -22 -4 -41
l-41 -193h63q13 0 10 -12z" />
    <glyph glyph-name="c143" horiz-adv-x="605" 
d="M661 678q0 -3 -1.5 -7.5l-2.5 -7.5l-8 -30q-2 -10 -11 -10h-66l-119 -561h67q8 -3 8 -7l-3 -15l-8 -30q-2 -10 -12 -10h-217l-37 -173q-1 -4 -2 -5q-4 -5 -12 -5h-54q-4 1 -5 2q-6 4 -4 13l36 168h-221q-8 3 -8 7l4 16l8 29q4 10 12 10h66l119 561h-68q-8 3 -8 7l4 16
l8 30q2 9 12 9h210q9 -3 9 -7q0 -3 -1.5 -7.5l-2.5 -7.5l-8 -30q-2 -10 -11 -10h-66l-118 -556h226l118 556h-68q-8 3 -8 7l4 16l8 30q2 9 12 9h210q9 -3 9 -7z" />
    <glyph glyph-name="c144" horiz-adv-x="509" 
d="M470 383q0 -51 -7.5 -101.5t-23.5 -101.5q-21 -72 -51 -137q-35 -76 -80 -135q-30 -40 -66 -76q-21 -21 -54 -50q-17 -16 -25 -16l-8 3l-17 16l-4 6v5q1 5 13 17q17 16 36 39q16 19 37 47q50 67 91 155.5t65 184.5q7 29 12.5 59t5.5 59q0 28 -7 43q-13 27 -48 27
q-24 0 -49.5 -14t-53 -45.5t-44.5 -66.5t-25 -73l-46 -218q-2 -10 -12 -10h-52q-8 0 -8 8l3 14l112 527h-57q-13 0 -10 12l6 29q1 7 5.5 9.5t9.5 2.5h57l12 57h-72q-7 0 -7 7l2 10l6 29q2 12 13 12h129q11 0 11 -9q0 -4 -2 -12l-20 -94h137q14 0 10 -15l-6 -26
q-2 -12 -14 -12h-138l-18 -84q-2 -9 -9.5 -35.5t-12.5 -39.5q15 19 32.5 36.5t37.5 31.5q26 19 52.5 27.5t57.5 8.5q22 0 39 -5.5t31 -22t19 -38t5 -45.5z" />
    <glyph glyph-name="c157" horiz-adv-x="488" 
d="M484 638q-3 -8 -5 -8l-175 -79l-7 -2q-4 0 -7 5l-14 21l-1 4q0 5 5 8l155 109l8 3q3 0 8 -5l2 -2l28 -46zM471 441q0 -10 -15 -12l-13 -2q-10 -1 -15.5 -4t-11.5 -9t-14 -21q-4 -8 -10 -21l-19 -40q-14 -31 -26 -45q-22 -26 -55 -36q19 -7 32.5 -24t16.5 -51l9 -83
q3 -21 10.5 -28.5t23.5 -9.5l11 -2q10 -3 10 -4l-2 -10l-21 -45q-3 -5 -8 -6.5t-11 -1.5q-12 0 -23.5 2t-21.5 8q-23 12 -31 38t-8 60l-6 71q0 35 -15 46q-10 7 -36 7h-57l-44 -208q-3 -10 -12 -10h-52q-10 0 -7 13l87 409h-80q-8 3 -8 7l2 11l5 28q2 12 13 12h139
q11 0 11 -10v-6q-2 -4 -2 -5l-39 -179h57q22 0 38.5 11t30.5 43l23 52q17 38 29.5 56.5t36.5 32.5q18 10 34.5 14.5t32.5 4.5q9 0 9 -8z" />
    <glyph glyph-name="c158" horiz-adv-x="544" 
d="M473 45l-8 -35q-3 -10 -11 -10h-77q-15 0 -25 5t-17.5 15t-7.5 28l4 31l56 265q2 11 4 23.5t2 16.5q0 20 -10.5 31.5t-36.5 11.5t-55 -14.5t-52.5 -40t-43 -64t-28.5 -80.5l-46 -218q-2 -10 -12 -10h-52q-8 0 -8 8l3 14l112 527h-57q-13 0 -10 12l6 29q1 7 5.5 9.5
t9.5 2.5h57l12 57h-72q-7 0 -7 7l2 10l6 29q2 12 13 12h129q11 0 11 -9q0 -4 -2 -12l-20 -94h137q14 0 10 -15l-6 -26q-2 -12 -14 -12h-138l-18 -84q-3 -15 -10.5 -38t-13.5 -39q33 46 73 72q51 34 109 34q50 0 74 -26q19 -21 19 -56q0 -17 -1 -25t-9 -43l-61 -286h67
q11 0 8 -13z" />
    <glyph glyph-name="nonbreakingspace" unicode="&#xa0;" 
 />
    <glyph glyph-name="exclamdown" unicode="&#xa1;" horiz-adv-x="534" 
d="M523 824q-10 -19 -20 -31q-17 -20 -37.5 -31t-42.5 -14.5t-43 -3.5q-25 0 -42 3t-34 14q-23 15 -30.5 35.5t-7.5 44.5v5q0 9 10 11l44 7l6 1q4 0 6 -9v-8q0 -9 0.5 -18.5t8.5 -18t18 -12t24 -3.5q27 0 48 14q7 4 15.5 14t14.5 24l6 14q3 4 12 2l47 -7q6 -2 6 -5
q-1 -15 -9 -28zM625 678l-4 -16l-8 -29q-4 -10 -12 -10h-38l-257 -503q-13 -26 -30 -50q-21 -30 -41.5 -46.5t-49.5 -27t-60 -10.5q-50 0 -94 29q-16 11 -16 20q0 4 4 10l24 33q2 4 11 7q4 0 19 -10q35 -22 64 -22q22 0 38 7.5t28.5 21t26.5 37.5q11 20 20 38l11 23h-31
q-12 0 -14 14l-72 429h-58q-8 3 -8 7l3 15l8 30q2 10 12 10h188q8 -3 8 -7l-4 -16l-8 -29q-4 -10 -12 -10h-49l47 -277l15 -118l66 135l130 260h-63q-8 3 -8 7l3 15l8 30q2 10 12 10h183q8 -3 8 -7z" />
    <glyph glyph-name="cent" unicode="&#xa2;" horiz-adv-x="463" 
d="M434 674l-5 -16q-8 -18 -12 -25q-8 -13 -24 -31t-35 -27q-36 -18 -78 -18q-36 0 -58 13t-33 35q-6 13 -9 30t-3 32v5q1 8 13 10l34 6l10 1q7 0 7 -12v-6q0 -12 0.5 -23t9.5 -22q5 -7 14 -11.5t24 -4.5q19 0 32 6q20 9 34 33q4 7 8 16.5t6.5 17t14.5 5.5l40 -6
q10 -3 10 -8zM468 460l-2 -8l-187 -418q-14 -31 -35 -72t-34 -62q-19 -31 -37 -50q-25 -27 -59.5 -43.5t-73.5 -16.5q-26 0 -49.5 8t-40.5 19q-7 4 -9.5 8t-4.5 7q0 2 5 10l23 38q4 5 7 5t7 -2t7 -4q15 -10 33.5 -16t32.5 -6q37 0 66 28q20 19 38 52l34 63h-36q-10 0 -12 10
l-60 412h-59q-6 0 -7 5q1 6 1 8l7 34q2 11 13 11h106q8 0 10 -9l56 -432l194 442q2 3 4 4l4 2l6 -2l47 -19q5 -4 5 -6z" />
    <glyph glyph-name="sterling" unicode="&#xa3;" horiz-adv-x="426" 
d="M431 669l-97 -457q-12 -58 -25 -92.5t-30 -59.5q-22 -32 -54 -50q-42 -24 -96 -24q-72 0 -111 42q-34 37 -34 92q0 23 1.5 39t6 27t13.5 11h53q7 0 7 -8q-2 -8 -2 -11q-1 -5 -2 -20.5t-1 -20.5q0 -31 10 -50q18 -34 62 -34q55 0 84 41q20 28 32 85l94 444h-177
q-3 1 -5.5 2t-2.5 6l3 14l8 30q2 10 12 10h242q12 0 9 -16z" />
    <glyph glyph-name="currency" unicode="&#xa4;" horiz-adv-x="539" 
d="M521 98l-12 -12q-3 -3 -6 -4t-5 -1q-4 0 -9 5l-61 60q-32 -25 -74 -38q-33 -10 -62 -10q-27 0 -53 7q-43 12 -81 41l-61 -60q-5 -5 -10 -5t-10 5l-12 12q-2 2 -3.5 5t-1.5 6q0 4 5 9l60 61q-48 60 -48 135t48 135l-60 61q-5 5 -5 10t5 10l12 12q3 3 6 4t5 1q4 0 9 -5
l61 -60q60 48 135 48t135 -48l61 60q5 5 10 5t10 -5l12 -12q2 -2 3.5 -5t1.5 -6q0 -4 -5 -9l-60 -61q48 -60 48 -135t-48 -135l60 -60q6 -6 6 -11q0 -4 -6 -10zM463 314q0 70 -50 120t-120 50t-120 -50t-50 -120t50 -120t120 -50t120 50t50 120z" />
    <glyph glyph-name="yen" unicode="&#xa5;" horiz-adv-x="469" 
d="M554 795l-2 -9l-33 -158q-2 -10 -12 -10h-240l-118 -556h80q10 0 7 -14l-8 -38q-2 -10 -12 -10h-226q-9 3 -9 7q0 3 1.5 7.5l2.5 7.5l8 30q2 10 11 10h66l119 561h-67q-8 3 -8 7l3 15l8 30q2 10 12 10h327l23 105q2 11 12 11h46q9 -3 9 -6z" />
    <glyph glyph-name="brokenbar" unicode="&#xa6;" horiz-adv-x="392" 
d="M252 325h-72v336q0 14 13 14h46q13 0 13 -14v-336zM252 -161q0 -11 -2.5 -12.5t-10.5 -1.5h-46q-4 0 -8.5 0.5t-4.5 13.5v336h72v-336z" />
    <glyph glyph-name="section" unicode="&#xa7;" 
d="M478 650l-5 -10l-22 -34l-6 -6l-10 3q-14 8 -31 16q-29 13 -60 13q-26 0 -42.5 -6.5t-29.5 -17.5q-25 -22 -25 -50q0 -18 12 -33q8 -9 27.5 -22.5t66.5 -39.5q15 -8 30 -19q32 -22 47 -54q12 -25 12 -50q0 -43 -28 -81q-38 -51 -122 -89l4 -2q10 -5 20 -13.5t19 -17.5
q17 -18 23.5 -36.5t6.5 -40.5q0 -66 -53.5 -111.5t-128.5 -45.5q-37 0 -73 11.5t-68 33.5q-7 4 -9.5 8t-4.5 7q1 3 2 6.5t4 7.5l19 30q5 8 10 8q2 0 18 -9q28 -17 55 -26.5t51 -9.5q23 0 40.5 6.5t30.5 19.5q25 23 25 54t-30 58q-16 14 -61.5 39t-66.5 46q-37 36 -37 83
q0 29 11.5 58t41.5 55q40 37 100 60q-14 7 -24 14.5t-20.5 19t-16.5 23.5q-9 18 -9 42q0 40 14.5 67.5t42 46.5t60 28t62.5 9q36 0 65.5 -10t52.5 -27q3 -2 7 -8q1 -1 3 -4zM360 334q0 24 -16 44q-7 8 -17.5 15.5t-23.5 15.5l-8 5q-30 -12 -51 -24.5t-42 -33.5
q-17 -17 -24.5 -34.5t-7.5 -31.5q0 -11 4.5 -24.5t16.5 -26.5q8 -9 21 -18q4 -3 22 -13l7 -4l15 8q24 13 37.5 22t29 23t24.5 30q13 23 13 47z" />
    <glyph glyph-name="dieresis" unicode="&#xa8;" 
d="M501 786q0 -21 -15 -36t-36 -15t-36 15t-15 36t15 36t36 15t36 -15t15 -36zM318 786q0 -21 -15 -36t-36 -15t-36 15t-15 36t15 36t36 15t36 -15t15 -36zM534 676l-30 -140q-2 -11 -12 -11h-46q-9 3 -9 6l2 9l16 78h-190l-48 -229h208q12 0 8 -15l-8 -40q-2 -12 -14 -12
h-209l-54 -255h197l20 95q1 4 3.5 7.5t8.5 3.5h49q7 0 5 -11l-31 -150q-3 -12 -15 -12h-397q-9 3 -9 7q0 3 1.5 7.5l2.5 7.5l8 30q2 10 11 10h66l119 561h-67q-8 3 -8 7l3 15l8 30q2 10 12 10h390q11 0 9 -9z" />
    <glyph glyph-name="copyright" unicode="&#xa9;" horiz-adv-x="497" 
d="M508 468q0 -85 -60.5 -145.5t-145.5 -60.5t-145.5 60.5t-60.5 145.5t60.5 145.5t145.5 60.5t145.5 -60.5t60.5 -145.5zM464 468q0 67 -47.5 114.5t-114.5 47.5t-114.5 -47.5t-47.5 -114.5t47.5 -114.5t114.5 -47.5t114.5 47.5t47.5 114.5zM375 380q0 -11 -20.5 -18
t-38.5 -7q-50 0 -73 40q-17 30 -17 77q0 54 17 83q21 35 68 35q28 0 46 -10t18 -18v-34q0 -10 -10 -10h-15q-10 0 -10 10v22l-27 4q-18 0 -27 -15.5t-9 -61.5q0 -41 6 -59q10 -28 37 -28l20 3v22q0 10 10 10h15q10 0 10 -10v-35z" />
    <glyph glyph-name="ordfeminine" unicode="&#xaa;" horiz-adv-x="471" 
d="M506 630l-2 -12l-23 -103q-2 -10 -12 -10h-46q-8 2 -8 6l2 11l18 84l-11 6q-15 8 -35.5 14t-38.5 6q-27 0 -53 -13q-36 -18 -66 -60q-22 -30 -41 -79t-29 -90h197q13 0 10 -12l-9 -43q-1 -7 -5 -9.5t-10 -2.5h-198q-6 -35 -9.5 -71.5t-3.5 -70.5q0 -32 6 -54.5t23 -42.5
q10 -12 28 -21.5t45 -9.5q26 0 56 13q19 8 33 18l10 7l18 84q2 11 12 11h46q8 0 8 -9q0 -6 -2 -12l-20 -95q-3 -15 -10 -21q-30 -25 -81 -44t-93 -19q-33 0 -56 8q-38 13 -62.5 44t-33.5 70t-9 84q0 79 17 165t51 159q49 104 122 150q53 33 114 33q24 0 49 -5.5t46.5 -15
t38.5 -23t17 -25.5z" />
    <glyph glyph-name="guillemotleft" unicode="&#xab;" horiz-adv-x="518" 
d="M509 437q0 -3 -1.5 -5t-2.5 -3l-177 -195l85 -188l3 -8q0 -6 -9 -10l-28 -13l-10 -4q-3 0 -7 6l-123 212q-3 6 -3 9t6 9l214 214q6 6 10 6l8 -3l30 -19q5 -6 5 -8zM324 437q0 -3 -1.5 -5t-2.5 -3l-177 -195l85 -188l3 -8q0 -6 -9 -10l-28 -13l-10 -4q-3 0 -7 6l-123 212
q-3 6 -3 9t6 9l214 214q6 6 10 6l8 -3l30 -19q5 -6 5 -8z" />
    <glyph glyph-name="logicalnot" unicode="&#xac;" 
d="M477 163q0 -14 -13 -14h-46q-13 0 -13 14v123h-370q-10 0 -11.5 2t-1.5 12v44q0 11 2.5 12.5t10.5 1.5h428q11 0 12.5 -2t1.5 -12v-181z" />
    <glyph glyph-name="minus" unicode="&#xad;" horiz-adv-x="296" 
d="M267 275l-10 -47q-3 -12 -15 -12h-206q-10 0 -10 7l2 12l9 44q2 12 15 12h207q11 0 8 -16z" />
    <glyph glyph-name="registered" unicode="&#xae;" horiz-adv-x="497" 
d="M508 468q0 -85 -60.5 -145.5t-145.5 -60.5t-145.5 60.5t-60.5 145.5t60.5 145.5t145.5 60.5t145.5 -60.5t60.5 -145.5zM464 468q0 67 -47.5 114.5t-114.5 47.5t-114.5 -47.5t-47.5 -114.5t47.5 -114.5t114.5 -47.5t114.5 47.5t47.5 114.5zM401 366q0 -10 -10 -10h-32
q-11 0 -16 9l-51 89h-14v-66h14q10 0 10 -10v-12q0 -10 -10 -10h-73q-10 0 -10 10v12q0 10 10 10h14v164h-14q-10 0 -10 10v11q0 10 10 10h91q34 0 52 -15t18 -46q0 -26 -13 -41t-31 -20l44 -73h11q10 0 10 -10v-12zM333 521q0 30 -31 30h-24v-65h20q20 0 29 13q6 9 6 22z
" />
    <glyph glyph-name="macron" unicode="&#xaf;" horiz-adv-x="331" 
d="M424 803q0 -22 -15 -37t-37 -15t-37 15t-15 37t15 37t37 15t37 -15t15 -37zM241 803q0 -22 -15 -37t-37 -15t-37 15t-15 37t15 37t37 15t37 -15t15 -37zM398 678l-4 -16l-8 -29q-4 -10 -12 -10h-92l-119 -561h95q8 -3 8 -7l-4 -16l-8 -30q-2 -9 -12 -9h-263q-9 3 -9 7
q0 3 1.5 7.5l2.5 7.5l8 30q2 10 11 10h92l119 561h-94q-8 3 -8 7l3 15l8 30q2 10 12 10h265q8 -3 8 -7z" />
    <glyph glyph-name="degree" unicode="&#xb0;" 
d="M446 531q0 -64 -45 -109t-109 -45q-65 0 -110 45t-45 109t45 109t110 45q63 0 108.5 -44.5t45.5 -109.5zM384 531q0 38 -27 65t-66 27q-38 0 -65 -26t-27 -66q0 -38 27 -65t65 -27q39 0 66 27t27 65z" />
    <glyph glyph-name="plusminus" unicode="&#xb1;" 
d="M477 232q0 -10 -2.5 -12t-11.5 -2h-178v-144q0 -14 -13 -14h-46q-10 0 -11.5 2t-1.5 12v144h-178q-10 0 -11.5 2t-1.5 12v44q0 11 2.5 12.5t10.5 1.5h178v176q0 11 2.5 12.5t10.5 1.5h46q3 0 8 -0.5t5 -13.5v-176h178q11 0 12.5 -2t1.5 -12v-44zM477 -36q0 -11 -2 -12.5
t-12 -1.5h-428q-4 0 -8.5 0.5t-4.5 13.5v44q0 11 2.5 12.5t10.5 1.5h428q11 0 12.5 -2.5t1.5 -11.5v-44z" />
    <glyph glyph-name="twosuperior" unicode="&#xb2;" horiz-adv-x="331" 
d="M398 678l-4 -16l-8 -29q-4 -10 -12 -10h-92l-119 -561h95q8 -3 8 -7l-4 -16l-8 -30q-2 -9 -12 -9h-263q-9 3 -9 7q0 3 1.5 7.5l2.5 7.5l8 30q2 10 11 10h92l119 561h-94q-8 3 -8 7l3 15l8 30q2 10 12 10h265q8 -3 8 -7z" />
    <glyph glyph-name="threesuperior" unicode="&#xb3;" horiz-adv-x="278" 
d="M272 661q0 -24 -16 -40t-40 -16t-40 16t-16 40q0 22 16 39t40 17t40 -16t16 -40zM213 459l-85 -401h66q11 0 8 -13l-8 -35q-3 -10 -11 -10h-77q-15 0 -25 5t-17.5 15t-7.5 28l4 31l73 343h-80q-8 3 -8 7l2 11l6 28q2 12 13 12h138q11 0 11 -10v-6q-2 -4 -2 -5z" />
    <glyph glyph-name="acute" unicode="&#xb4;" horiz-adv-x="345" 
d="M396 631l-41 -197q-2 -12 -13 -12h-141l-78 -412q-2 -10 -12 -10h-53q-4 0 -8 8l2 14l77 400h-72q-8 3 -8 7l2 11l5 28q2 12 13 12h228l28 136q2 10 11 12l42 12q6 2 11 2q9 0 7 -11z" />
    <glyph glyph-name="mu" unicode="&#xb5;" horiz-adv-x="536" 
d="M482 478l-74 -347q-3 -12 -5.5 -31t-2.5 -21l1 -14l1 -7h68q11 0 8 -13l-8 -35q-3 -10 -11 -10h-58q-40 0 -54 19q-9 12 -9 41v14v6q-16 -20 -31 -34t-35 -28q-50 -32 -101 -32q-18 0 -30 6q-13 9 -19 13l-7 5l-31 -154h69q7 0 7 -8q0 -4 -2 -10l-7 -30q-2 -10 -12 -10
h-194q-8 3 -8 7l3 15l5 24q2 12 13 12h55l118 566h-72q-8 3 -8 7l2 11l5 28q2 12 13 12h131q11 0 11 -10v-6q-2 -4 -2 -5l-62 -289q-3 -18 -6 -33.5t-3 -27.5q0 -56 51 -56q26 0 52.5 12.5t45.5 28.5l19 19q19 24 34 65q9 26 18 65l46 218q2 10 10 12l52 13q6 1 10.5 0.5
t3.5 -8.5z" />
    <glyph glyph-name="paragraph" unicode="&#xb6;" horiz-adv-x="611" 
d="M612 634q0 -10 -2 -11.5t-12 -1.5h-67v-794q0 -3 -0.5 -8t-13.5 -5h-41q-14 0 -14 13v794h-64v-794q0 -3 -0.5 -8t-13.5 -5h-41q-14 0 -14 13v347l-16 -2q-10 -2 -26.5 -3.5t-31.5 -1.5q-42 0 -73 13q-46 19 -75 67q-22 37 -30 82.5t-8 98.5q0 51 7 89t30.5 77.5
t61.5 60.5q55 30 149 30h281q11 0 12.5 -2.5t1.5 -10.5v-38zM329 238v383h-27q-52 0 -78.5 -13t-42.5 -39.5t-20.5 -60t-4.5 -79.5q0 -86 18 -128q29 -68 109 -68q11 0 20.5 0.5t25.5 4.5z" />
    <glyph glyph-name="cedilla" unicode="&#xb8;" horiz-adv-x="444" 
d="M468 625q0 -21 -15 -36t-36 -15t-36 15t-15 36t15 36t36 15t36 -15t15 -36zM285 625q0 -21 -15 -36t-36 -15t-36 15t-15 36t15 36t36 15t36 -15t15 -36zM418 366q0 -100 -93 -142q-73 -33 -212 -33h-4l-1 -25q0 -52 23 -81t71 -29q38 0 76 14q22 8 50 25q14 9 17 9
q5 0 8 -3q0 -2 1 -3l24 -36l2 -5q-1 -3 -3 -5.5t-12 -9.5q-43 -30 -85 -43t-88 -13q-74 0 -115 44q-44 47 -44 139q0 44 9 86t27 81q25 55 67 95q66 63 154 63q61 0 94.5 -34.5t33.5 -93.5zM347 363q0 30 -15 48q-18 21 -54 21q-49 0 -86 -31q-54 -46 -74 -148q64 0 101.5 6
t63.5 18q34 15 49 37.5t15 48.5z" />
    <glyph glyph-name="onesuperior" unicode="&#xb9;" horiz-adv-x="868" 
d="M848 472q0 -27 -6.5 -56t-18.5 -55t-26 -43q-19 -23 -48 -36.5t-60 -13.5q-25 0 -41 8t-26 21q-21 27 -21 67q0 34 11.5 73t34.5 70q17 22 38 36q32 21 73 21q25 0 41 -7.5t28 -20.5t16.5 -28.5t4.5 -35.5zM786 118l-7 -35q-1 -7 -5.5 -9.5t-9.5 -2.5h-211q-12 0 -9 12
l7 35q2 9 5.5 10.5t9.5 1.5h211q11 0 9 -12zM670 678l-4 -16l-8 -29q-4 -10 -12 -10h-64l-126 -593q-6 -22 -6 -23q-4 -7 -12 -7h-46q-17 0 -20 12l-115 508q-3 11 -5.5 22t-2.5 49q-1 -20 -4.5 -39t-7.5 -36l-97 -454h66q8 -3 8 -7l-4 -16l-8 -30q-2 -9 -12 -9h-200
q-9 3 -9 7q0 3 1.5 7.5l2.5 7.5l8 30q2 10 11 10h66l119 561h-65q-3 1 -5.5 2t-2.5 4v2q3 7 3 14l8 30q2 10 12 10h138q11 0 14 -12l109 -478q4 -16 6.5 -37t3.5 -38q5 31 7 45.5t6 35.5l89 422h-67q-8 3 -8 7l3 15l8 30q2 10 12 10h202q8 -3 8 -7zM789 458q0 16 -2.5 26
t-11.5 18q-12 12 -29 12q-19 0 -36.5 -11.5t-31.5 -41.5q-8 -19 -13 -41.5t-5 -44.5q0 -15 1.5 -24t7.5 -17t13.5 -12t21.5 -4q28 0 46 20q11 12 21 35.5t14 44.5t4 40z" />
    <glyph glyph-name="ordmasculine" unicode="&#xba;" horiz-adv-x="397" 
d="M406 440l-18 -86q-2 -11 -13 -11h-44q-9 0 -9 7l2 11l12 56l-3 1q-11 4 -23.5 6.5t-24.5 2.5q-25 0 -48.5 -10t-44.5 -28.5t-38 -48.5t-24 -62h152q13 0 10 -12l-8 -38q-1 -7 -5 -9.5t-10 -2.5h-153q-2 -12 -3.5 -26.5t-1.5 -33.5q0 -56 30 -81q23 -19 60 -19
q48 0 104 31l10 4l8 -4l15 -35l3 -8q0 -5 -2.5 -7.5t-11.5 -8.5q-31 -19 -71 -30.5t-80 -11.5q-33 0 -56 8q-32 11 -51.5 37t-26.5 59.5t-7 60.5q0 65 19 130t51 111q41 58 98 83q43 19 92 19q50 0 90 -20q22 -12 22 -25q0 -6 -1 -9z" />
    <glyph glyph-name="guillemotright" unicode="&#xbb;" horiz-adv-x="518" 
d="M458 240q0 -3 -6 -9l-214 -214q-6 -6 -10 -6l-8 3l-30 19q-5 6 -5 8q0 3 1.5 5t2.5 3l177 195l-85 188l-3 8q0 6 9 10l28 13l10 4q3 0 7 -6l123 -212q3 -6 3 -9zM273 240q0 -3 -6 -9l-214 -214q-6 -6 -10 -6l-8 3l-30 19q-5 6 -5 8q0 3 1.5 5t2.5 3l177 195l-85 188l-3 8
q0 6 9 10l28 13l10 4q3 0 7 -6l123 -212q3 -6 3 -9z" />
    <glyph glyph-name="onequarter" unicode="&#xbc;" horiz-adv-x="291" 
d="M293 661q0 -24 -16 -40t-40 -16t-40 16t-16 40q0 22 16 39t40 17t40 -16t16 -40zM236 470l-2 -11l-103 -483q-9 -41 -18 -67q-16 -47 -38 -71q-42 -48 -113 -48q-27 0 -50 5.5t-49 19.5q-5 2 -9 6t-4 7l3 9l18 39q2 4 5 5.5t4 1.5q4 0 18 -7q38 -19 68 -19q27 0 43 13.5
t26 33.5t16 43t14 59l89 416h-80q-8 3 -8 7l3 15l5 24q2 12 13 12h138q11 0 11 -10z" />
    <glyph glyph-name="onehalf" unicode="&#xbd;" horiz-adv-x="435" 
d="M462 635l-25 -115q-1 -4 -2 -5q-4 -6 -10 -6h-48q-7 2 -7 6l2 12l17 79l-5 3q-18 11 -41.5 17t-42.5 6q-50 0 -84 -28q-40 -33 -40 -94q0 -26 7 -40.5t28 -33.5q12 -10 48 -38q17 -13 36 -29q42 -35 58 -59q33 -48 33 -111q0 -94 -63.5 -153.5t-165.5 -59.5q-49 0 -89 13
q-19 6 -49 22q-12 6 -17 12q-10 10 -7 21l27 125q1 4 3.5 7.5t8.5 3.5h47q4 0 8 -7l-3 -13l-19 -91l8 -4q18 -9 42 -15.5t49 -6.5q65 0 101.5 40.5t36.5 97.5q0 47 -29 84q-19 24 -64 58q-60 46 -77 66q-40 47 -40 109q0 86 63 141q31 27 69 38.5t80 11.5q33 0 71.5 -7.5
t63.5 -22.5q13 -8 18 -17t3 -17z" />
    <glyph glyph-name="threequarters" unicode="&#xbe;" horiz-adv-x="389" 
d="M366 443l-19 -91q-2 -10 -13 -10h-44q-12 0 -8 15l14 63q-27 7 -48 7q-38 0 -61 -18.5t-23 -52.5q0 -25 18 -44q13 -13 48 -36q42 -27 58 -45q32 -36 32 -85q0 -65 -42 -109q-48 -51 -134 -51q-43 0 -83 13q-23 8 -48 22q-12 7 -12 15q3 11 4 18l19 92q2 10 13 10h45
q4 0 8 -7l-2 -10l-14 -69q37 -17 82 -17q41 0 64.5 24.5t23.5 56.5q0 36 -31 63q-9 8 -40 29q-44 30 -59 47q-26 30 -26 73q0 34 13.5 63t42.5 51q21 16 52.5 25t60.5 9q42 0 78 -14t31 -37z" />
    <glyph glyph-name="questiondown" unicode="&#xbf;" horiz-adv-x="278" 
d="M323 625q0 -21 -15 -36t-36 -15t-36 15t-15 36t15 36t36 15t36 -15t15 -36zM181 625q0 -21 -15 -36t-36 -15t-36 15t-15 36t15 36t36 15t36 -15t15 -36zM213 459l-85 -401h66q11 0 8 -13l-8 -35q-3 -10 -11 -10h-77q-15 0 -25 5t-17.5 15t-7.5 28l4 31l73 343h-80
q-8 3 -8 7l2 11l6 28q2 12 13 12h138q11 0 11 -10v-6q-2 -4 -2 -5z" />
    <glyph glyph-name="Agrave" unicode="&#xc0;" horiz-adv-x="552" 
d="M521 48l-8 -38q-2 -10 -12 -10h-189q-9 3 -9 7q0 3 1.5 7.5l2.5 7.5l8 30q2 10 11 10h59l-12 144h-213l-72 -144h61q10 0 7 -14l-8 -38q-2 -10 -12 -10h-182q-9 3 -9 7q0 3 1.5 7.5l2.5 7.5l8 30q2 10 11 10h42l317 614q6 9 12 9h56q10 0 12 -13l56 -610h51q10 0 7 -14z
M367 273l-17 222q0 20 -1 45l-2 50l-20 -50q-3 -7 -22 -45l-112 -222h174z" />
    <glyph glyph-name="Aacute" unicode="&#xc1;" horiz-adv-x="531" 
d="M536 676l-35 -163q-2 -11 -12 -11h-46q-9 3 -9 6l2 9l21 101h-190l-46 -224h97q41 0 70 -9q46 -14 73.5 -53t27.5 -95q0 -60 -29.5 -118t-77.5 -87q-30 -18 -64.5 -25t-71.5 -7h-256q-9 3 -9 7q0 3 1.5 7.5l2.5 7.5l8 30q2 10 11 10h66l119 561h-67q-8 3 -8 7l3 15l8 30
q2 10 12 10h390q11 0 9 -9zM407 231q0 41 -19.5 63t-44.5 27.5t-56 5.5h-80l-56 -260h88q42 0 71 11q48 18 73 64q10 18 17 42.5t7 46.5z" />
    <glyph glyph-name="Acircumflex" unicode="&#xc2;" horiz-adv-x="547" 
d="M533 559q0 -66 -35 -119.5t-103 -79.5q42 -12 67 -46.5t25 -84.5q0 -43 -14.5 -81t-39.5 -70q-35 -43 -87 -62q-44 -16 -102 -16h-254q-9 3 -9 7q0 3 1.5 7.5l2.5 7.5l8 30q2 10 11 10h66l119 561h-67q-8 3 -8 7l3 15l8 30q2 10 12 10h197q61 0 83 -3q51 -7 80 -32
q19 -16 27.5 -38.5t8.5 -52.5zM451 538q0 16 -4 31t-12.5 24.5t-21.5 15.5q-19 9 -43 9h-103l-50 -236h63q43 0 67.5 8t44.5 25q24 21 41.5 56t17.5 67zM405 222q0 51 -34 74q-28 19 -81 19h-88l-52 -248h88q35 0 49 3q33 7 61 30t42.5 56.5t14.5 65.5z" />
    <glyph glyph-name="Atilde" unicode="&#xc3;" horiz-adv-x="469" 
d="M529 676l-35 -163q-2 -11 -12 -11h-46q-9 3 -9 6l2 9l21 101h-183l-118 -556h80q10 0 7 -14l-8 -38q-2 -10 -12 -10h-226q-9 3 -9 7q0 3 1.5 7.5l2.5 7.5l8 30q2 10 11 10h66l119 561h-67q-8 3 -8 7l3 15l8 30q2 10 12 10h383q11 0 9 -9z" />
    <glyph glyph-name="Adieresis" unicode="&#xc4;" horiz-adv-x="608" 
d="M664 678q0 -3 -1.5 -7.5l-2.5 -7.5l-8 -30q-2 -10 -11 -10h-66l-118 -556h55q14 0 16 -2t0 -16l-46 -220q-4 -12 -15 -12h-54q-4 1 -5 2q-6 4 -4 13l36 168h-388l-36 -171q-4 -12 -15 -12h-54q-4 1 -5 2q-6 4 -4 13l46 217q3 13 8 15.5t16 2.5h34q63 90 110 189
q42 89 68 176q21 72 40 170l4 21h-67q-8 3 -8 7l3 15l8 30q2 10 12 10h443q9 -3 9 -7zM496 618h-160l-24 -111q-52 -241 -189 -440h256z" />
    <glyph glyph-name="Aring" unicode="&#xc5;" 
d="M534 676l-30 -140q-2 -11 -12 -11h-46q-9 3 -9 6l2 9l16 78h-190l-48 -229h208q12 0 8 -15l-8 -40q-2 -12 -14 -12h-209l-54 -255h197l20 95q1 4 3.5 7.5t8.5 3.5h49q7 0 5 -11l-31 -150q-3 -12 -15 -12h-397q-9 3 -9 7q0 3 1.5 7.5l2.5 7.5l8 30q2 10 11 10h66l119 561
h-67q-8 3 -8 7l3 15l8 30q2 10 12 10h390q11 0 9 -9z" />
    <glyph glyph-name="AE" unicode="&#xc6;" horiz-adv-x="811" 
d="M851 643q0 -12 -18 -17l-14 -3q-8 -2 -20 -4.5t-22 -12.5q-10 -8 -22 -30.5t-22 -45.5l-24 -56q-24 -57 -50 -85q-22 -24 -57 -38q24 -14 41 -36.5t20 -51.5l13 -130q1 -16 3 -30t7 -21.5t16 -12t19 -5.5l18 -3q4 -2 9 -3q6 -4 2 -13l-23 -48q-5 -12 -15 -12q-10 2 -18 3
q-34 5 -54.5 18t-29.5 37q-13 34 -13 91l-8 101q0 39 -19 63t-52 24h-51l-55 -260h63q13 0 10 -12l-8 -38q-1 -7 -5 -9.5t-10 -2.5h-204q-12 0 -9 12l8 38q2 12 14 12h63l55 260h-54q-43 0 -68 -28q-15 -16 -34 -59l-47 -101q-9 -20 -21 -44q-16 -32 -22 -41
q-20 -28 -54 -44q-21 -9 -53 -15l-12 -2q-14 -3 -21 -3q-9 0 -9 12l-4 48q0 7 2 10.5t15 5.5l20 3q15 2 25 7q15 8 26 23q5 7 11 18t11 21l70 136q21 40 53 66q23 18 50 28q-27 13 -38.5 37.5t-17.5 71.5l-8 66q-7 52 -12.5 60.5t-13.5 14.5t-20 9l-15 4q-13 4 -13 9
q0 3 3 8l21 45q6 13 21 10l9 -2q27 -5 41 -15t25 -27q6 -10 10 -24t6 -27l6 -52l7 -60q6 -49 18 -70q19 -32 59 -32h42l50 234h-63q-12 0 -9 12l8 38q2 12 14 12h204q13 0 10 -12l-8 -38q-1 -7 -5 -9.5t-10 -2.5h-63l-50 -234h54q28 0 45 12q27 20 52 76l32 74
q12 29 24.5 53t24.5 39q20 24 47.5 36.5t56.5 16.5l13 2q15 2 17 -10z" />
    <glyph glyph-name="Ccedilla" unicode="&#xc7;" 
d="M486 562q0 -45 -19 -87.5t-50 -71.5q-14 -13 -30.5 -23t-38.5 -18q53 -15 73 -67q11 -28 11 -63q0 -52 -21.5 -98.5t-58.5 -82.5q-28 -27 -63 -43q-48 -22 -106 -22q-46 0 -86 13q-22 7 -48 22q-15 8 -20.5 15.5t-3.5 17.5l27 125q1 4 3.5 7.5t8.5 3.5h47q4 0 8 -7
l-3 -13l-19 -91l7 -4q14 -8 43.5 -15t43.5 -7q63 0 111 52t48 123q0 23 -5.5 39t-20.5 28.5t-32 18t-50 5.5h-37q-13 0 -10 12l9 43q2 12 16 12h23q37 0 62 9t44 26q24 20 40.5 54t16.5 72q0 53 -38 73q-22 12 -50 12q-18 0 -40.5 -4.5t-46.5 -15.5l-13 -6l-18 -84
q-3 -17 -14 -17h-46q-5 1 -7 3t-1 7l21 103q4 19 21 31q28 21 74 35.5t88 14.5q36 0 62.5 -8.5t49.5 -30.5q17 -17 27.5 -40.5t10.5 -57.5z" />
    <glyph glyph-name="Egrave" unicode="&#xc8;" horiz-adv-x="640" 
d="M696 678l-4 -16l-8 -29q-4 -10 -12 -10h-68l-119 -561h66q8 -3 8 -7l-4 -16l-8 -30q-2 -9 -12 -9h-210q-9 3 -9 7q0 3 1.5 7.5l2.5 7.5l8 30q2 10 11 10h68l90 421l-346 -410l-3 -11h68q8 -3 8 -7l-4 -16l-8 -30q-2 -9 -12 -9h-210q-9 3 -9 7q0 3 1.5 7.5l2.5 7.5l8 30
q2 10 11 10h66l119 561h-67q-8 3 -8 7l3 15l8 30q2 10 12 10h212q8 -3 8 -7l-4 -16l-8 -29q-4 -10 -12 -10h-66l-89 -421l346 410l2 11h-65q-8 3 -8 7l3 15l8 30q2 10 12 10h212q8 -3 8 -7z" />
    <glyph glyph-name="Eacute" unicode="&#xc9;" horiz-adv-x="640" 
d="M576 844l-5 -17q-9 -21 -17 -34q-14 -22 -36.5 -39.5t-50 -25t-50.5 -7.5q-40 0 -66 16q-17 11 -26 25.5t-13.5 31.5t-4.5 43v5q1 8 13 10l36 7l10 1q8 0 8 -13v-6v-25q2 -13 10 -23q5 -7 15 -11.5t27 -4.5q20 0 37 9t30 31q4 8 8.5 17.5t6.5 18.5t16 6l42 -7
q10 -3 10 -8zM696 678l-4 -16l-8 -29q-4 -10 -12 -10h-68l-119 -561h66q8 -3 8 -7l-4 -16l-8 -30q-2 -9 -12 -9h-210q-9 3 -9 7q0 3 1.5 7.5l2.5 7.5l8 30q2 10 11 10h68l90 421l-346 -410l-3 -11h68q8 -3 8 -7l-4 -16l-8 -30q-2 -9 -12 -9h-210q-9 3 -9 7q0 3 1.5 7.5
l2.5 7.5l8 30q2 10 11 10h66l119 561h-67q-8 3 -8 7l3 15l8 30q2 10 12 10h212q8 -3 8 -7l-4 -16l-8 -29q-4 -10 -12 -10h-66l-89 -421l346 410l2 11h-65q-8 3 -8 7l3 15l8 30q2 10 12 10h212q8 -3 8 -7z" />
    <glyph glyph-name="Ecircumflex" unicode="&#xca;" horiz-adv-x="585" 
d="M625 643q2 -14 -18 -17l-23 -3q-20 -3 -36 -14q-8 -6 -14.5 -14t-17.5 -30q-7 -15 -16 -35l-24 -56q-22 -51 -35 -69q-27 -38 -72 -54q17 -10 30 -24q26 -28 30 -64l16 -130q4 -33 5.5 -39t10.5 -16.5t29 -13.5l18 -3q10 -2 11.5 -6.5t-0.5 -9.5l-23 -48q-5 -11 -16 -11
q-4 0 -18 2q-30 6 -47 14t-28.5 27t-16 45.5t-4.5 57.5l-8 99q0 35 -17 59q-23 32 -70 32h-71l-55 -260h63q13 0 10 -12l-8 -38q-1 -7 -5 -9.5t-10 -2.5h-204q-12 0 -9 12l8 38q2 12 14 12h63l119 561h-63q-12 0 -9 12l8 38q2 12 14 12h204q13 0 10 -12l-8 -38
q-1 -7 -5 -9.5t-10 -2.5h-63l-50 -234h90q28 0 45 12q28 20 52 76l32 76q18 43 32.5 67t34 40.5t41.5 24.5t45 11l16 2q15 4 17 -10z" />
    <glyph glyph-name="Edieresis" unicode="&#xcb;" horiz-adv-x="593" 
d="M649 678q0 -7 -3 -16l-8 -29q-3 -10 -13 -10h-66l-119 -561h68q8 -3 8 -7l-4 -16l-8 -30q-2 -9 -12 -9h-210q-9 3 -9 7q0 3 1.5 7.5l2.5 7.5l8 30q2 10 11 10h66l118 556h-150l-35 -146q-23 -95 -53 -182q-52 -150 -105 -217q-26 -33 -54 -52q-37 -25 -87 -33
q-8 -2 -12.5 -2.5t-9.5 -0.5q-14 0 -14 10l1 52q0 20 14 20l11 1q42 4 69.5 26t53.5 71q33 66 73 183q34 102 55 187l21 88h-67q-8 3 -8 7l3 15l8 30q2 10 11 10h437q4 0 7 -7z" />
    <glyph glyph-name="Igrave" unicode="&#xcc;" horiz-adv-x="685" 
d="M725 678l-4 -16l-8 -29q-2 -11 -12 -10h-64l-88 -561h68q8 -3 8 -7l-4 -16l-8 -30q-2 -9 -12 -9h-207q-9 3 -9 7q0 3 1.5 7.5l2.5 7.5l8 30q2 10 11 10h65l86 466l11 51l-25 -51l-190 -351q-3 -5 -5 -9q-5 -8 -14 -8h-29h-8q-5 2 -6 13l-37 355l-3 31l-1 13l-1 13
q-1 -22 -4.5 -34.5t-6.5 -22.5l-111 -466h68q8 -3 8 -7l-4 -16l-8 -30q-2 -9 -12 -9h-207q-9 3 -9 7q0 3 1.5 7.5l2.5 7.5l8 30q2 10 11 10h65l151 561h-67q-8 3 -8 7l3 15l8 30q2 10 12 10h134q13 0 14 -12l40 -349l2 -29l1 -21q4 12 13.5 30.5t11.5 22.5l188 349q5 9 15 9
h146q8 -3 8 -7z" />
    <glyph glyph-name="Iacute" unicode="&#xcd;" horiz-adv-x="612" 
d="M668 678l-4 -16l-8 -29q-4 -10 -12 -10h-66l-119 -561h68q8 -3 8 -7l-4 -16l-8 -30q-2 -9 -12 -9h-210q-9 3 -9 7q0 3 1.5 7.5l2.5 7.5l8 30q2 10 11 10h66l55 260h-233l-55 -260h68q8 -3 8 -7l-4 -16l-8 -30q-2 -9 -12 -9h-210q-9 3 -9 7q0 3 1.5 7.5l2.5 7.5l8 30
q2 10 11 10h66l119 561h-67q-8 3 -8 7l3 15l8 30q2 10 12 10h212q8 -3 8 -7l-4 -16l-8 -29q-4 -10 -12 -10h-66l-50 -234h233l50 234h-67q-8 3 -8 7l3 15l8 30q2 10 12 10h212q8 -3 8 -7z" />
    <glyph glyph-name="Icircumflex" unicode="&#xce;" horiz-adv-x="537" 
d="M522 497q0 -131 -34 -249q-38 -130 -105 -197q-35 -35 -73 -50t-87 -15t-80.5 14.5t-54 46.5t-29.5 64.5t-7 75.5q0 132 32 245q37 130 106 200q34 34 72.5 50.5t89.5 16.5q41 0 72.5 -10.5t56.5 -40.5t33 -66.5t8 -84.5zM440 505q0 39 -4 56q-7 29 -29 50t-61 21
q-42 0 -74 -24q-38 -28 -69 -94t-50 -164.5t-19 -178.5q0 -26 4.5 -47.5t17.5 -38.5q24 -32 74 -32q51 0 87 35q31 31 58 96q34 81 49.5 163.5t15.5 157.5z" />
    <glyph glyph-name="Idieresis" unicode="&#xcf;" horiz-adv-x="605" 
d="M661 678l-4 -16l-8 -29q-4 -10 -12 -10h-66l-119 -561h68q8 -3 8 -7l-4 -16l-8 -30q-2 -9 -12 -9h-210q-9 3 -9 7q0 3 1.5 7.5l2.5 7.5l8 30q2 10 11 10h66l118 556h-226l-118 -556h68q8 -3 8 -7l-4 -16l-8 -30q-2 -9 -12 -9h-210q-9 3 -9 7q0 3 1.5 7.5l2.5 7.5l8 30
q2 10 11 10h66l119 561h-67q-8 3 -8 7l3 15l8 30q2 10 12 10h516q8 -3 8 -7z" />
    <glyph glyph-name="Eth" unicode="&#xd0;" horiz-adv-x="528" 
d="M523 538q0 -68 -30 -126q-23 -45 -61 -75q-31 -25 -70 -35.5t-92 -10.5h-73l-49 -229h78q8 -3 8 -7l-4 -16l-8 -30q-2 -9 -12 -9h-220q-9 3 -9 7q0 3 1.5 7.5l2.5 7.5l8 30q2 10 11 10h66l119 561h-67q-8 3 -8 7l3 15l8 30q2 10 11 10h220q33 0 63.5 -5t53.5 -22
q31 -23 43 -64q7 -24 7 -56zM441 523q0 33 -7.5 52.5t-19 28.5t-24.5 11.5t-27 2.5h-96l-55 -260h62q46 0 72.5 9t42.5 25q23 22 37.5 57t14.5 74z" />
    <glyph glyph-name="Ntilde" unicode="&#xd1;" horiz-adv-x="471" 
d="M506 630l-2 -12l-23 -103q-2 -10 -12 -10h-46q-8 2 -8 6l2 11l18 84l-11 6q-15 8 -35.5 14t-38.5 6q-48 0 -87 -36q-46 -42 -79 -132q-24 -65 -37.5 -144.5t-13.5 -138.5q0 -32 6 -54.5t23 -42.5q10 -12 28 -21.5t45 -9.5q26 0 56 13q19 8 33 18l10 7l18 84q2 11 12 11
h46q8 0 8 -9q0 -6 -2 -12l-20 -95q-3 -15 -10 -21q-30 -25 -81 -44t-93 -19q-33 0 -56 8q-38 13 -62.5 44t-33.5 70t-9 84q0 79 17 165t51 159q49 104 122 150q53 33 114 33q24 0 49 -5.5t46.5 -15t38.5 -23t17 -25.5z" />
    <glyph glyph-name="Ograve" unicode="&#xd2;" horiz-adv-x="444" 
d="M515 678l-3 -15l-32 -151q-2 -10 -13 -10h-46q-8 3 -8 7l3 15l20 94h-98l-119 -556h76q8 -3 8 -7l-4 -16l-8 -30q-2 -9 -12 -9h-218q-9 3 -9 7q0 3 1.5 7.5l2.5 7.5l8 30q2 10 11 10h66l119 556h-98l-22 -106q-2 -10 -13 -10h-46q-8 3 -8 7l3 15l31 150q2 11 14 11h386
q8 -3 8 -7z" />
    <glyph glyph-name="Oacute" unicode="&#xd3;" horiz-adv-x="534" 
d="M625 678l-4 -16l-8 -29q-4 -10 -12 -10h-38l-257 -503q-13 -26 -30 -50q-21 -30 -41.5 -46.5t-49.5 -27t-60 -10.5q-50 0 -94 29q-16 11 -16 20q0 4 4 10l24 33q2 4 11 7q4 0 19 -10q35 -22 64 -22q22 0 38 7.5t28.5 21t26.5 37.5q11 20 20 38l11 23h-31q-12 0 -14 14
l-72 429h-58q-8 3 -8 7l3 15l8 30q2 10 12 10h188q8 -3 8 -7l-4 -16l-8 -29q-4 -10 -12 -10h-49l47 -277l15 -118l66 135l130 260h-63q-8 3 -8 7l3 15l8 30q2 10 12 10h183q8 -3 8 -7z" />
    <glyph glyph-name="Ocircumflex" unicode="&#xd4;" horiz-adv-x="611" 
d="M596 424q0 -18 -5 -48.5t-10 -53.5q-9 -33 -21 -60q-16 -35 -38 -59q-29 -33 -74 -54q-55 -26 -118 -26h-15l-12 -59h63q11 0 9 -12l-8 -40q-1 -7 -5.5 -9.5t-9.5 -2.5h-204q-12 0 -9 12l8 40q2 9 5.5 10.5t9.5 1.5h63l12 59h-15q-40 0 -68 8q-41 12 -68 42
q-15 18 -24.5 43t-9.5 56q0 37 9 77.5t24 76.5q29 70 86 108q61 41 147 41h15l13 59h-63q-5 0 -8.5 2t-1.5 10l9 40q2 12 14 12h204q5 0 8.5 -2t1.5 -10l-9 -40q-2 -12 -14 -12h-63l-13 -59h15q43 0 73 -9t56 -34q21 -21 31 -48.5t10 -59.5zM518 420q0 22 -5 37.5t-19.5 30
t-38.5 20t-48 5.5h-9l-70 -328h9q28 0 50 4.5t44 19t36 34t24.5 45.5t18.5 63t8 69zM320 513h-9q-64 0 -104 -31q-30 -24 -49 -69q-12 -31 -20 -68t-8 -69q0 -26 5.5 -40.5t22 -27.5t38 -18t45.5 -5h9z" />
    <glyph glyph-name="Otilde" unicode="&#xd5;" horiz-adv-x="502" 
d="M584 678l-4 -16l-8 -29q-4 -10 -12 -10h-43l-205 -265l102 -296h58q8 -3 8 -7l-4 -16l-8 -30q-2 -9 -12 -9h-201q-9 3 -9 7q0 3 1.5 7.5l2.5 7.5l8 30q2 10 11 10h59l-71 221l-164 -221h68q8 -3 8 -7l-4 -16l-8 -30q-2 -9 -12 -9h-203q-9 3 -9 7q0 3 1.5 7.5l2.5 7.5
l8 30q2 10 11 10h49l222 296l-88 265h-58q-8 3 -8 7l3 15l8 30q2 10 12 10h197q8 -3 8 -7l-4 -16l-8 -29q-4 -10 -12 -10h-55l48 -146l16 -52l8 15q8 14 16 27q5 8 10 14l108 142h-60q-8 3 -8 7l3 15l8 30q2 10 12 10h193q8 -3 8 -7z" />
    <glyph glyph-name="Odieresis" unicode="&#xd6;" horiz-adv-x="605" 
d="M661 678q0 -3 -1.5 -7.5l-2.5 -7.5l-8 -30q-2 -10 -11 -10h-66l-118 -556h56q14 0 16 -2t0 -16l-47 -222q-1 -4 -2 -5q-4 -5 -12 -5h-54q-4 1 -5 2q-6 4 -4 13l36 168h-449q-8 3 -8 7l4 16l8 29q4 10 12 10h66l119 561h-68q-8 3 -8 7l4 16l8 30q2 9 12 9h210q9 -3 9 -7
q0 -3 -1.5 -7.5l-2.5 -7.5l-8 -30q-2 -10 -11 -10h-66l-118 -556h226l118 556h-68q-8 3 -8 7l4 16l8 30q2 9 12 9h210q9 -3 9 -7z" />
    <glyph glyph-name="multiply" unicode="&#xd7;" horiz-adv-x="581" 
d="M637 678l-4 -16l-8 -29q-4 -10 -12 -10h-66l-119 -561h68q8 -3 8 -7l-4 -16l-8 -30q-2 -9 -12 -9h-220q-9 3 -9 7q0 3 1.5 7.5l2.5 7.5l8 30q2 10 11 10h76l52 243q-40 -16 -74 -24.5t-71 -8.5q-46 0 -74 14.5t-43 36.5q-9 14 -14.5 32.5t-5.5 38.5t5 43l39 186h-67
q-8 3 -8 7l3 15l8 30q2 10 12 10h212q8 -3 8 -7l-4 -16l-8 -29q-4 -10 -12 -10h-66l-39 -186l-3 -30q0 -20 8 -37t27 -24t42 -7q21 0 36 2.5t36 7.5q31 9 35 10q12 4 32 13l53 251h-67q-8 3 -8 7l3 15l8 30q2 10 12 10h212q8 -3 8 -7z" />
    <glyph glyph-name="Oslash" unicode="&#xd8;" horiz-adv-x="817" 
d="M873 678q0 -3 -1.5 -7.5l-2.5 -7.5l-8 -30q-2 -10 -11 -10h-66l-119 -561h67q8 -3 8 -7l-3 -15l-8 -30q-2 -10 -12 -10h-728q-8 3 -8 7l4 16l8 29q4 10 12 10h66l119 561h-68q-8 3 -8 7l4 16l8 30q2 9 12 9h210q9 -3 9 -7q0 -3 -1.5 -7.5l-2.5 -7.5l-8 -30
q-2 -10 -11 -10h-66l-118 -556h180l130 609q2 9 12 9h58q9 -3 9 -7q-3 -10 -4 -15l-127 -596h180l118 556h-68q-8 3 -8 7l4 16l8 30q2 9 12 9h210q9 -3 9 -7z" />
    <glyph glyph-name="Ugrave" unicode="&#xd9;" horiz-adv-x="817" 
d="M873 678q0 -3 -1.5 -7.5l-2.5 -7.5l-8 -30q-2 -10 -11 -10h-66l-118 -556h56q14 0 16 -2t0 -16l-47 -222q-1 -4 -2 -5q-4 -5 -12 -5h-54q-4 1 -5 2q-6 4 -4 13l36 168h-661q-8 3 -8 7l4 16l8 29q4 10 12 10h66l119 561h-68q-8 3 -8 7l4 16l8 30q2 9 12 9h210q9 -3 9 -7
q0 -3 -1.5 -7.5l-2.5 -7.5l-8 -30q-2 -10 -11 -10h-66l-118 -556h180l130 609q2 9 12 9h58q9 -3 9 -7q-3 -10 -4 -15l-127 -596h180l118 556h-68q-8 3 -8 7l4 16l8 30q2 9 12 9h210q9 -3 9 -7z" />
    <glyph glyph-name="Uacute" unicode="&#xda;" horiz-adv-x="591" 
d="M561 239q0 -70 -33 -128q-29 -51 -74 -79q-28 -17 -64 -24.5t-74 -7.5h-252q-9 3 -9 7q0 3 1.5 7.5l2.5 7.5l8 30q2 10 11 10h66l118 556h-98l-22 -106q-2 -10 -13 -10h-47q-8 3 -8 7l3 15l32 150q2 11 14 11h300q8 -3 8 -7l-4 -16l-8 -29q-4 -10 -12 -10h-66l-48 -229
h83q52 0 85 -9.5t62 -39.5q21 -23 29.5 -48.5t8.5 -57.5zM479 233q0 20 -6.5 37.5t-19.5 30.5q-17 16 -41 21t-53 5h-80l-56 -260h88q44 0 71 10q47 17 73 65q8 15 16 43.5t8 47.5z" />
    <glyph glyph-name="Ucircumflex" unicode="&#xdb;" horiz-adv-x="769" 
d="M825 678l-4 -16l-8 -29q-4 -10 -12 -10h-66l-119 -561h68q8 -3 8 -7l-4 -16l-8 -30q-2 -9 -12 -9h-210q-9 3 -9 7q0 3 1.5 7.5l2.5 7.5l8 30q2 10 11 10h66l119 561h-67q-8 3 -8 7l3 15l8 30q2 10 12 10h212q8 -3 8 -7zM487 239q0 -63 -29 -120t-78 -87
q-32 -20 -70.5 -26t-79.5 -6h-240q-9 3 -9 7q0 3 1.5 7.5l2.5 7.5l8 30q2 10 11 10h66l119 561h-67q-8 3 -8 7l3 15l8 30q2 11 12 10h212q8 -3 8 -7l-4 -16l-8 -29q-4 -10 -12 -10h-66l-48 -229h83q64 0 97 -13.5t57 -43.5q16 -20 23.5 -45t7.5 -53zM405 228q0 41 -19 64
t-53 31q-18 4 -48 4h-80l-56 -260h104q38 0 73 19t55 56q10 19 17 43t7 43z" />
    <glyph glyph-name="Udieresis" unicode="&#xdc;" horiz-adv-x="517" 
d="M487 239q0 -71 -33 -129q-29 -51 -74 -78q-29 -18 -64 -25t-71 -7h-255q-9 3 -9 7q0 3 1.5 7.5l2.5 7.5l8 30q2 10 11 10h66l119 561h-67q-8 3 -8 7l3 15l8 30q2 11 12 10h212q8 -3 8 -7l-4 -16l-8 -29q-4 -10 -12 -10h-66l-48 -229h83q61 0 94.5 -13.5t56.5 -39.5
q19 -22 26.5 -46t7.5 -56zM405 228q0 24 -7.5 43t-23 31t-33.5 18.5t-46 6.5h-90l-56 -260h96q54 0 92 26q27 18 44 49q10 19 17 43t7 43z" />
    <glyph glyph-name="Yacute" unicode="&#xdd;" horiz-adv-x="513" 
d="M499 500q0 -74 -25 -174.5t-61 -172.5t-84 -112q-65 -55 -154 -55q-45 0 -81 13q-15 6 -45 22q-15 8 -20.5 15.5t-3.5 17.5l27 125q1 4 3.5 7.5t8.5 3.5h47q4 0 8 -7l-3 -13l-19 -91l11 -6q15 -8 34 -14t37 -6q84 0 142 95q36 59 65 164l3 11h-197q-13 0 -10 12l9 43
q1 7 5 9.5t10 2.5h197l4 20q10 49 10 98q0 32 -5 52.5t-22 41.5q-26 30 -69 30q-28 0 -49 -5t-42 -15l-13 -6l-18 -84q-3 -17 -14 -17h-46q-5 1 -7 3t-1 7l21 103q2 11 6 17t15 14q29 21 66 34q45 16 93 16q41 0 71 -11.5t54 -40.5t33 -65t9 -82z" />
    <glyph glyph-name="Thorn" unicode="&#xde;" horiz-adv-x="779" 
d="M764 496q0 -133 -33 -248q-37 -130 -104.5 -196t-161.5 -66q-50 0 -85 21q-25 15 -44 41q-22 32 -30 78q-4 24 -4 70q0 69 9 126h-108l-55 -260h68q8 -3 8 -7l-4 -16l-8 -30q-2 -9 -12 -9h-210q-9 3 -9 7q0 3 1.5 7.5l2.5 7.5l8 30q2 10 11 10h66l119 561h-67q-8 3 -8 7
l3 15l8 30q2 10 12 10h212q8 -3 8 -7l-4 -16l-8 -29q-4 -10 -12 -10h-66l-50 -234h107q10 62 40.5 130.5t73.5 112.5q32 34 70 50.5t86 16.5q103 0 144 -74q26 -47 26 -129zM682 505q0 27 -5 54t-19 43.5t-31.5 23t-38.5 6.5q-85 0 -140 -118q-37 -79 -55 -189
q-13 -81 -13 -155q0 -25 4 -46t17.5 -39t32 -25t41.5 -7q49 0 84 35q31 31 58 96q35 84 52 182q13 74 13 139z" />
    <glyph glyph-name="germandbls" unicode="&#xdf;" horiz-adv-x="565" 
d="M621 678l-4 -16l-8 -29q-4 -10 -12 -10h-66l-119 -561h68q8 -3 8 -7l-4 -16l-8 -30q-2 -9 -12 -9h-210q-9 3 -9 7q0 3 1.5 7.5l2.5 7.5l8 30q2 10 11 10h66l53 250h-54q-41 0 -70 -30q-17 -18 -35 -55l-49 -99q-13 -28 -19 -40q-9 -17 -20 -34q-21 -33 -52 -48
q-23 -11 -57 -16l-14 -2q-14 -2 -19 -2q-11 0 -11 11l-4 48q0 7 2 10.5t15 5.5l20 3q26 4 40 17t35 52l68 125q14 26 30 43t39 30q-45 12 -71.5 46.5t-26.5 82.5q0 40 13 78.5t47 73.5q43 45 98 62q36 11 90 11h231q8 -3 8 -7zM452 615h-77q-41 0 -68 -8t-52 -36
q-39 -44 -39 -109q0 -52 41 -72q27 -13 79 -13h65z" />
    <glyph glyph-name="agrave" unicode="&#xe0;" 
d="M449 45l-8 -35q-2 -10 -12 -10h-75q-26 0 -37.5 17t-11.5 42v18l1 16q-34 -55 -74.5 -81t-83.5 -26q-41 0 -70 25q-43 37 -43 122q0 51 13.5 109.5t36.5 108.5q37 78 93 114q45 29 92 29q37 0 65 -17q18 -11 35 -31l5 -6l14 31q4 9 9 9h44q10 0 7 -13l-68 -314
q-3 -13 -5 -33t-2 -34l1 -28h67q11 0 7 -13zM359 384q-20 20 -44 31.5t-46 11.5q-27 0 -52.5 -16.5t-47.5 -55.5q-25 -44 -41.5 -106t-16.5 -112q0 -36 9 -54q15 -30 52 -30q54 0 99 59q41 54 59 136z" />
    <glyph glyph-name="aacute" unicode="&#xe1;" horiz-adv-x="493" 
d="M527 697q3 -14 -13 -20l-211 -88q-74 -31 -119 -89q-31 -40 -45 -89l-9 -31q42 57 90 83q39 21 83 21q60 0 99 -33q51 -43 51 -133q0 -134 -66 -228q-73 -104 -195 -104q-74 0 -114 49q-24 29 -31 65t-7 82q0 58 9.5 115t34.5 124q37 103 99 162q49 47 128 80l185 76
q8 3 12 3q8 0 10 -10zM377 316q0 53 -23 78t-66 25q-33 0 -67.5 -19.5t-57.5 -59.5q-19 -33 -30.5 -86t-11.5 -101q0 -58 28 -83q21 -19 59 -19q32 0 64 19q37 22 59.5 60t34 89.5t11.5 96.5z" />
    <glyph glyph-name="acircumflex" unicode="&#xe2;" horiz-adv-x="466" 
d="M428 380q0 -40 -26.5 -75.5t-72.5 -52.5q32 -10 52 -34.5t20 -61.5t-15 -71t-42.5 -57.5t-65 -32.5t-80.5 -9t-89.5 9t-64.5 25q-8 7 -5 19l58 276q9 42 22 71q21 45 56 71q24 18 55.5 27.5t63.5 9.5q39 0 62.5 -10t40.5 -27q14 -14 22.5 -32t8.5 -45zM355 369
q0 19 -8 33q-17 30 -61 30q-24 0 -38 -5.5t-28 -15.5q-20 -15 -30.5 -33.5t-16.5 -48.5l-11 -52h86q49 0 78 27t29 65zM325 147q0 17 -6.5 30.5t-17 23t-28 13t-31.5 3.5h-93l-34 -157l19 -5q8 -2 25 -4.5t42 -2.5q28 0 48 4.5t37.5 17.5t28 33t10.5 44z" />
    <glyph glyph-name="atilde" unicode="&#xe3;" horiz-adv-x="412" 
d="M382 382q0 -48 -29 -83t-89 -63l-41 -19q-25 -12 -50 -23.5t-39.5 -24t-21 -29t-6.5 -30.5q0 -28 18.5 -43.5t50.5 -15.5q25 0 42.5 3.5t58.5 19.5l31 12q4 0 8 -5l12 -40q2 -8 -5 -14q-3 -2 -16 -9q-34 -15 -76 -23.5t-72 -8.5q-64 0 -100 37q-15 15 -21.5 33t-6.5 40
q0 57 35 96q28 31 93 61l36 16l33 16q42 20 60.5 39.5t18.5 48.5q0 11 -2.5 20.5t-11 19t-21.5 13t-29 3.5q-17 0 -32 -2.5t-42 -12.5l-13 -52q-2 -7 -3 -9q-4 -6 -11 -6h-39q-12 0 -9 10l19 83q2 9 8 14.5t16 10.5q35 16 67.5 22.5t58.5 6.5q66 0 97 -39q23 -29 23 -73z
" />
    <glyph glyph-name="adieresis" unicode="&#xe4;" 
d="M470 457q0 -69 -11 -128t-33 -123q-42 -123 -107 -175q-56 -45 -134 -45q-90 0 -127 59q-25 40 -25 105q0 68 15.5 125t46.5 102q36 53 90 82q47 25 95 25q37 0 68 -17q42 -23 57 -72q2 11 3 33t1 33q0 72 -20 113q-37 76 -139 76q-28 0 -46.5 -5t-20.5 -5q-9 0 -9 16
l-1 33v8q0 4 6 7.5t25 7t30.5 4.5t25.5 1q89 0 141 -49q69 -65 69 -211zM365 316q0 30 -5.5 46.5t-16.5 29.5q-24 27 -66 27q-75 0 -121 -73q-23 -37 -35 -90.5t-12 -102.5q0 -41 13 -64q21 -38 75 -38q34 0 64 18q35 21 60 66q20 37 32 88t12 93z" />
    <glyph glyph-name="aring" unicode="&#xe5;" horiz-adv-x="444" 
d="M418 366q0 -100 -93 -142q-73 -33 -212 -33h-4l-1 -25q0 -52 23 -81t71 -29q38 0 76 14q22 8 50 25q14 9 17 9q5 0 8 -3q0 -2 1 -3l24 -36l2 -5q-1 -3 -3 -5.5t-12 -9.5q-43 -30 -85 -43t-88 -13q-74 0 -115 44q-44 47 -44 139q0 44 9 86t27 81q25 55 67 95q66 63 154 63
q61 0 94.5 -34.5t33.5 -93.5zM347 363q0 30 -15 48q-18 21 -54 21q-49 0 -86 -31q-54 -46 -74 -148q64 0 101.5 6t63.5 18q34 15 49 37.5t15 48.5z" />
    <glyph glyph-name="ae" unicode="&#xe6;" horiz-adv-x="653" 
d="M643 441q0 -10 -15 -12l-11 -2q-20 -3 -28 -10.5t-25 -44.5l-19 -40q-14 -31 -26 -45q-22 -26 -55 -36q19 -7 32.5 -24t16.5 -51l9 -83q2 -20 10 -28t24 -10l11 -2q10 -3 10 -4l-2 -10l-21 -45q-3 -8 -18 -8q-12 0 -23.5 2t-22.5 8q-23 12 -31 38t-8 60l-6 71
q0 35 -15 46q-10 7 -36 7h-40l-44 -210q-1 -8 -12 -8h-52q-6 0 -8 8l44 210h-39q-24 0 -39 -9.5t-31 -43.5l-34 -71q-19 -40 -32.5 -59t-24.5 -26q-34 -23 -85 -23q-10 3 -10 8l-3 45q-1 7 1.5 10t12.5 4l13 2q20 3 29.5 10.5t20.5 27.5l52 96q14 25 24 36q20 21 52 30
q-24 10 -35 34q-7 15 -10 43l-5 43q0 16 -1.5 21.5t-7 14.5t-10.5 11.5t-16 4.5l-13 2q-13 2 -9 12l20 45q4 8 13 8q21 0 40 -8.5t31 -29.5q6 -11 8 -19.5t7 -50.5l4 -36q4 -37 10 -48q12 -22 43 -22h38l40 188q3 10 9 12l54 13l7 1l5 -2v-7l-43 -205h39q22 0 38.5 11
t30.5 43l23 52q13 28 20 41q14 23 32 39q14 12 37 20t45 8q6 0 8 -8z" />
    <glyph glyph-name="ccedilla" unicode="&#xe7;" horiz-adv-x="416" 
d="M377 384q0 -46 -27 -80.5t-74 -49.5q18 -6 32 -16q9 -7 18 -19q18 -25 18 -62q0 -22 -10.5 -50.5t-26.5 -49.5q-24 -31 -63 -49q-47 -22 -104 -22q-39 0 -73.5 8.5t-61.5 25.5q-12 9 -12 13l4 12l16 28q7 10 12 10q2 0 17.5 -8.5t47.5 -17.5t58 -9q31 0 54.5 10.5
t40.5 29.5q25 28 25 65q0 13 -4.5 26.5t-16 23t-28.5 13t-33 3.5h-39q-13 0 -10 13l7 33q3 14 16 14h24q22 0 43.5 5t39.5 18q37 27 37 71q0 11 -3.5 20.5t-10 18t-20.5 14.5t-35 6q-43 0 -88 -20l-11 -52q-1 -7 -5 -9.5t-10 -2.5h-36q-12 0 -9 12l17 80q4 11 13 16
q20 11 29 14.5t29 9.5t42 10t47 4q42 0 64 -10t37 -29q23 -29 23 -71z" />
    <glyph glyph-name="egrave" unicode="&#xe8;" horiz-adv-x="534" 
d="M480 478l-74 -347q-3 -12 -5.5 -31t-2.5 -21l1 -14l1 -7h68q11 0 8 -13l-8 -35q-3 -10 -11 -10h-58q-19 0 -29.5 3t-19.5 10.5t-11.5 20.5t-2.5 18v22v6q-33 -45 -78.5 -69.5t-95.5 -24.5q-51 0 -78 36q-22 30 -22 69q0 11 2.5 25.5t6.5 32.5l58 273h-72q-8 3 -8 7l2 11
l5 28q2 12 13 12h131q11 0 11 -10v-6q-2 -4 -2 -5l-62 -289q-3 -18 -6 -33.5t-3 -27.5q0 -56 51 -56q26 0 52.5 12.5t47 30t36.5 47.5q20 38 33 100l46 218q2 10 10 12l52 13q6 1 10.5 0.5t3.5 -8.5z" />
    <glyph glyph-name="eacute" unicode="&#xe9;" horiz-adv-x="534" 
d="M460 674l-5 -16q-11 -25 -17 -34q-13 -20 -32.5 -34.5t-42.5 -23.5t-55 -9q-34 0 -54.5 9.5t-33.5 30.5q-8 12 -12.5 28.5t-4.5 41.5q0 13 13 15l34 6q17 3 17 -11v-6v-21q2 -15 9 -24q12 -16 39 -16q42 0 66 39q6 9 8.5 15.5t5.5 16t15 7.5l40 -6q10 -3 10 -8zM480 478
l-74 -347q-3 -12 -5.5 -31t-2.5 -21l1 -14l1 -7h68q11 0 8 -13l-8 -35q-3 -10 -11 -10h-58q-33 0 -46 9q-17 12 -17 43v22v6q-31 -41 -71 -65q-48 -29 -102 -29q-53 0 -80 36q-21 28 -21 69q0 11 2.5 25.5t6.5 32.5l58 273h-72q-8 3 -8 7l2 11l5 28q2 12 13 12h131
q11 0 11 -10v-6q-2 -4 -2 -5l-62 -289q-3 -18 -6 -33.5t-3 -27.5q0 -56 51 -56q26 0 52.5 12.5t47 30t36.5 47.5q20 38 33 100l46 218q2 10 10 12l52 13q6 1 10.5 0.5t3.5 -8.5z" />
    <glyph glyph-name="ecircumflex" unicode="&#xea;" horiz-adv-x="488" 
d="M471 441q0 -10 -15 -12l-13 -2q-10 -1 -15.5 -4t-11.5 -9t-14 -21q-4 -8 -10 -21l-19 -40q-14 -31 -26 -45q-22 -26 -55 -36q19 -7 32.5 -24t16.5 -51l9 -83q3 -21 10.5 -28.5t23.5 -9.5l11 -2q10 -3 10 -4l-2 -10l-21 -45q-3 -5 -8 -6.5t-11 -1.5q-12 0 -23.5 2t-21.5 8
q-23 12 -31 38t-8 60l-6 71q0 35 -15 46q-10 7 -36 7h-57l-44 -208q-3 -10 -12 -10h-52q-10 0 -7 13l87 409h-80q-8 3 -8 7l2 11l5 28q2 12 13 12h139q11 0 11 -10v-6q-2 -4 -2 -5l-39 -179h57q22 0 38.5 11t30.5 43l23 52q17 38 29.5 56.5t36.5 32.5q18 10 34.5 14.5
t32.5 4.5q9 0 9 -8z" />
    <glyph glyph-name="edieresis" unicode="&#xeb;" horiz-adv-x="530" 
d="M470 473l-1 -8l-87 -407h67q11 0 8 -13l-8 -35q-3 -10 -11 -10h-77q-15 0 -25 5t-17.5 15t-7.5 28l4 31l71 336h-114l-7 -30q-13 -59 -24 -96q-14 -50 -34 -105q-32 -89 -68 -131q-32 -37 -76 -54q-15 -6 -31.5 -9.5t-30.5 -3.5h-5q-16 0 -16 11v43q0 11 18 13l9 1
q46 6 75 33q41 38 74 138q10 30 29 98q14 49 16 59l9 40h-69q-8 3 -8 7l2 11l5 28q2 12 13 12h306q3 0 9 -5z" />
    <glyph glyph-name="igrave" unicode="&#xec;" horiz-adv-x="653" 
d="M588 45l-8 -35q-3 -10 -11 -10h-75q-15 0 -25 5t-17.5 15t-7.5 28l4 31l50 276l7 37q-4 -8 -7 -15q-8 -13 -13 -22l-140 -243q-6 -10 -14 -10h-37q-8 0 -10 10l-37 243l-3 37l-10 -37q-25 -99 -26 -103q-8 -31 -19 -68q-14 -48 -31 -82q-23 -47 -50.5 -71.5t-55.5 -34.5
t-51 -10h-5q-16 0 -16 11v43q0 13 18 13q42 0 70 29q21 22 38 65q21 53 45 138q18 65 34 137h-69q-8 3 -8 7l2 11l5 28q2 12 13 12h154q7 -3 7 -9l34 -217q3 -18 4 -43t1 -27q12 25 19 39t17 31l126 217q3 9 11 9h74q7 0 6 -9l-63 -413h62q11 0 8 -13z" />
    <glyph glyph-name="iacute" unicode="&#xed;" horiz-adv-x="540" 
d="M486 478l-90 -420h67q11 0 8 -13l-8 -35q-3 -10 -11 -10h-77q-15 0 -25 5t-17.5 15t-7.5 28l4 31l29 137h-193l-43 -204q-1 -7 -5 -9.5t-10 -2.5h-48q-12 0 -9 12l87 410h-80q-8 3 -8 7l2 11l5 28q2 12 13 12h139q11 0 11 -10v-6q-2 -4 -2 -5l-39 -181h193l39 183
q2 10 10 12l52 13q7 2 11 0t3 -8z" />
    <glyph glyph-name="icircumflex" unicode="&#xee;" horiz-adv-x="481" 
d="M442 325q0 -58 -15.5 -117t-46.5 -108q-38 -61 -97 -90q-48 -24 -99 -24q-33 0 -58.5 8.5t-49.5 31t-33.5 57.5t-9.5 70q0 60 15 118.5t44 105.5q40 65 98 94q46 23 99 23q38 0 68 -13q23 -10 42 -29q43 -43 43 -127zM366 324q0 26 -5 45.5t-23 35.5q-12 11 -28 16.5
t-32 5.5q-33 0 -63 -17q-38 -22 -63 -68q-19 -36 -31 -88t-12 -99q0 -25 4 -41.5t15 -31t25 -22t37 -7.5q35 0 67 18q39 22 64 66q22 38 33.5 88t11.5 99z" />
    <glyph glyph-name="idieresis" unicode="&#xef;" horiz-adv-x="537" 
d="M473 45l-8 -35q-3 -10 -11 -10h-77q-29 0 -42 20q-8 13 -8 25v8l2 15l58 276l4 24t2 16q0 21 -11 32t-32 11q-35 0 -65 -17q-39 -22 -71 -70q-15 -22 -28 -52.5t-19 -59.5l-46 -218q-2 -10 -12 -10h-52q-8 0 -8 8l3 14l71 335q1 7 3 23t2 24l-1 18h-69q-4 0 -8 7l2 9
l6 30q2 12 13 12h103q16 0 19 -29.5t3 -46.5l-1 -16q17 23 34.5 40t38.5 32t41 23q29 11 66 11q56 0 79 -32q15 -21 15 -48q0 -25 -4 -42.5t-6 -27.5l-60 -286h66q11 0 8 -13z" />
    <glyph glyph-name="eth" unicode="&#xf0;" horiz-adv-x="509" 
d="M470 342q0 -63 -13.5 -125.5t-41.5 -113.5q-34 -62 -89 -92q-45 -25 -95 -25q-29 0 -50.5 6.5t-44.5 19.5l-12 7l-35 -163h68q7 0 7 -8q0 -4 -2 -10l-7 -30q-2 -10 -12 -10h-194q-8 3 -8 7l3 15l5 24q2 12 13 12h55l101 471q4 18 6 32t2 30l-2 33h-71q-8 3 -8 7l3 15
l5 24q2 12 13 12h99q20 0 26 -14q3 -7 6 -39l1 -10q37 38 76 57.5t83 19.5q70 0 97 -59q16 -35 16 -93zM394 341q0 37 -9 56q-14 30 -51 30q-50 0 -93 -43q-50 -50 -69 -141l-34 -160l10 -6q19 -11 30 -15q23 -9 46 -9q74 0 117 69q28 45 42 114q11 53 11 105z" />
    <glyph glyph-name="ntilde" unicode="&#xf1;" horiz-adv-x="397" 
d="M406 440l-21 -98q-2 -11 -13 -11h-44q-9 0 -9 7l2 11l15 68l-3 1q-11 4 -23.5 6.5t-24.5 2.5q-35 0 -68 -20q-39 -24 -64 -70q-19 -35 -30.5 -89t-11.5 -94q0 -55 29 -79q23 -19 61 -19q34 0 66 15q30 18 38 22l10 4l8 -4l15 -35l3 -8q0 -5 -2.5 -7.5t-11.5 -8.5
q-34 -24 -74 -36t-77 -12q-33 0 -56 8q-32 11 -51.5 37t-26.5 59.5t-7 60.5q0 65 19 130t51 111q41 58 98 83q43 19 92 19q50 0 90 -20q22 -12 22 -25q0 -6 -1 -9z" />
    <glyph glyph-name="ograve" unicode="&#xf2;" horiz-adv-x="768" 
d="M697 45l-8 -35q-3 -10 -11 -10h-77q-29 0 -42 20q-8 13 -8 25v8l2 15l59 276l4 24t2 16q0 18 -10 30.5t-33 12.5q-41 0 -73 -24q-20 -15 -35 -38q-20 -29 -33.5 -69t-23.5 -85l-43 -201q-2 -10 -12 -10h-52q-8 0 -8 8l3 14l68 322l4 24t2 16q0 17 -8 28q-11 15 -34 15
q-33 0 -66 -22.5t-56 -64.5q-28 -48 -41 -112l-46 -218q-2 -10 -12 -10h-52q-8 0 -8 8l3 14l71 335q2 6 3.5 19t1.5 28l-1 18h-69q-4 0 -8 7l2 9l6 30q2 12 13 12h103q16 0 19 -29.5t3 -46.5l-1 -16q14 21 32.5 41.5t36.5 34.5q23 17 46.5 23.5t46.5 6.5q40 0 62 -26t22 -65
q28 42 71.5 66.5t89.5 24.5q39 0 65.5 -20.5t26.5 -62.5q0 -15 -1 -23t-9 -44l-61 -286h66q11 0 8 -13z" />
    <glyph glyph-name="oacute" unicode="&#xf3;" horiz-adv-x="463" 
d="M468 460l-2 -8l-187 -418q-14 -31 -35 -72t-34 -62q-19 -31 -37 -50q-25 -27 -59.5 -43.5t-73.5 -16.5q-26 0 -49.5 8t-40.5 19q-7 4 -9.5 8t-4.5 7q0 2 5 10l23 38q4 5 7 5t7 -2t7 -4q15 -10 33.5 -16t32.5 -6q37 0 66 28q20 19 38 52l34 63h-36q-10 0 -12 10l-60 412
h-59q-6 0 -7 5q1 6 1 8l7 34q2 11 13 11h106q8 0 10 -9l56 -432l194 442q2 3 4 4l4 2l6 -2l47 -19q5 -4 5 -6z" />
    <glyph glyph-name="ocircumflex" unicode="&#xf4;" horiz-adv-x="654" 
d="M615 343q0 -48 -18 -119.5t-42 -116.5q-14 -26 -34.5 -51.5t-42.5 -40.5q-43 -29 -94 -29q-49 0 -71 31l-35 -161h68q8 0 8 -7q0 -3 -2 -11l-8 -30q-3 -10 -12 -10h-194q-7 0 -7 7l3 15l5 24q2 8 5 9.5t7 2.5h55l35 161q-20 -16 -42.5 -23.5t-41.5 -7.5q-31 0 -53 10.5
t-37 28.5t-24.5 50t-9.5 66q0 51 18 121.5t41 114.5q36 69 87 98q34 19 73 19q44 0 82 -39l37 177h-80q-6 3 -6 7l1 6v5l6 28v5l3 4q7 3 9 3h139q11 0 11 -10v-6q-2 -4 -2 -5l-46 -214q20 16 42 26q28 13 53 13q55 0 84.5 -39.5t29.5 -111.5zM539 348q0 17 -2.5 32.5
t-11.5 27.5q-18 24 -55 24q-22 0 -45 -14q-15 -9 -33 -27l-66 -310q18 -19 32 -26t29 -7q44 0 75 36q21 24 35.5 63.5t28 100.5t13.5 100zM320 391q-22 41 -64 41q-24 0 -45 -13q-30 -19 -50.5 -62t-36 -114t-15.5 -109q0 -19 3 -33.5t13 -27.5q19 -25 55 -25q17 0 37 9.5
t37 23.5z" />
    <glyph glyph-name="otilde" unicode="&#xf5;" horiz-adv-x="426" 
d="M439 459q0 -3 -4 -7l-186 -203l87 -191h55q4 0 8 -7l-2 -10l-6 -29q-2 -12 -13 -12h-89q-8 0 -13 9l-66 151l-10 27l-18 -23l-135 -163q-5 -8 -11 -8q-4 0 -7 1.5l-7 3.5l-44 18q-3 1 -4 3t-2 3q4 7 5 8l199 219l-79 173h-56q-8 3 -8 7l2 11l6 28q2 12 13 12h89
q7 0 10 -7l72 -169l22 31l122 148q2 2 4 3.5t3 1.5l7 -2l52 -21q4 -4 4 -6z" />
    <glyph glyph-name="odieresis" unicode="&#xf6;" horiz-adv-x="529" 
d="M471 478l-74 -347q-2 -12 -3 -17.5t-1 -16.5q0 -22 13 -35h52h10q3 -2 1 -13l-37 -181q-2 -10 -11 -12l-42 -12q-6 -2 -11 -2q-9 0 -7 11l31 147q-15 0 -30 6t-23.5 19.5t-10 22.5t-1.5 26v6q-27 -36 -64 -60q-23 -16 -48.5 -25t-60.5 -9q-53 0 -80 36q-21 28 -21 69
q0 11 2.5 25.5t6.5 32.5l58 273h-72q-8 3 -8 7l2 11l5 28q2 12 13 12h131q11 0 11 -10v-6q-2 -4 -2 -5l-62 -289q-3 -18 -6 -33.5t-3 -27.5q0 -56 51 -56q26 0 52.5 12.5t47 30t36.5 47.5q20 38 33 100l46 218q2 10 10 12l52 13q6 1 10.5 0.5t3.5 -8.5z" />
    <glyph glyph-name="divide" unicode="&#xf7;" horiz-adv-x="487" 
d="M433 478l-90 -420h67q11 0 8 -13l-8 -35q-3 -10 -11 -10h-77q-12 0 -23 3.5t-19 15.5t-8 29l4 31l24 112q-40 -15 -64.5 -21t-53.5 -6q-52 0 -84 28q-15 14 -22 29.5t-7 42.5q0 23 6 49l23 109h-80q-8 3 -8 7l2 11l5 28q2 12 13 12h139q11 0 11 -10v-6q-2 -4 -2 -5
l-33 -157l-2 -18q0 -26 14.5 -39.5t42.5 -13.5q23 0 53.5 6t59.5 16l44 208q2 10 10 12l52 13q7 2 11 0t3 -8z" />
    <glyph glyph-name="oslash" unicode="&#xf8;" horiz-adv-x="758" 
d="M704 478l-76 -355q-2 -6 -3.5 -19t-1.5 -28l1 -18h69q4 0 8 -7l-2 -9l-6 -30q-2 -12 -13 -12h-103q-16 0 -19 29.5t-3 46.5l1 16q-27 -41 -59 -68q-24 -19 -50.5 -28.5t-52.5 -9.5q-41 0 -65 28q-8 9 -13.5 26t-5.5 37q-25 -36 -57 -58q-48 -33 -104 -33q-48 0 -73 29
q-19 21 -19 54q0 24 4 40.5t6 26.5l61 286h-80q-8 3 -8 7l2 11l5 28q2 12 13 12h139q11 0 11 -10v-6q-2 -4 -2 -5l-69 -323l-4 -24t-2 -16q0 -18 10 -30.5t33 -12.5q31 0 60.5 16t50.5 49q17 27 31 67.5t23 83.5l41 192q2 10 10 12l52 13q7 2 11 0t3 -8l-73 -342l-4 -24
t-2 -16q0 -17 9.5 -30t32.5 -13q33 0 66 22.5t56 64.5q28 48 41 112l44 209q2 10 10 12l52 13q7 2 11 0t3 -8z" />
    <glyph glyph-name="ugrave" unicode="&#xf9;" horiz-adv-x="758" 
d="M704 478l-74 -347q-2 -12 -3 -17.5t-1 -16.5q0 -22 13 -35h52h10q3 -2 1 -13l-37 -181q-2 -10 -11 -12l-42 -12q-6 -2 -11 -2q-9 0 -7 11l31 147q-29 0 -47 16q-22 19 -22 59v17q-27 -42 -58 -68q-47 -38 -101 -38q-44 0 -67 27q-6 8 -13 25.5t-7 38.5q-29 -43 -72 -67
t-87 -24q-25 0 -41.5 6t-28 16t-16.5 20q-8 16 -8 41q0 15 1 23t9 44l61 286h-80q-8 3 -8 7l2 11l5 28q2 12 13 12h139q11 0 11 -10v-6q-2 -4 -2 -5l-69 -323l-4 -24t-2 -16q0 -18 10 -30.5t33 -12.5q28 0 53 12q34 16 58 54q20 32 35 76q10 31 19 74l41 192q2 10 10 12
l52 13q7 2 11 0t3 -8l-73 -342l-4 -24t-2 -16q0 -17 9.5 -30t32.5 -13q33 0 66 22.5t56 64.5q28 48 41 112l44 209q2 10 10 12l52 13q6 1 10.5 0.5t3.5 -8.5z" />
    <glyph glyph-name="uacute" unicode="&#xfa;" horiz-adv-x="515" 
d="M465 170q0 -74 -45 -124q-31 -34 -76 -49q-34 -11 -74 -11q-46 0 -87.5 11.5t-55.5 22.5q-8 7 -5 19l80 376h-87l-12 -58q-2 -7 -3 -9q-4 -6 -11 -6h-40q-2 0 -6.5 1t-2.5 9l24 116q2 12 13 12h198q11 0 11 -10v-6q-2 -4 -2 -5l-37 -172q20 6 40 8.5t36 2.5q64 0 103 -34
t39 -94zM389 161q0 39 -24.5 58.5t-65.5 19.5q-14 0 -30.5 -2.5t-34.5 -7.5l-36 -169l16 -4q11 -3 28.5 -5.5t29.5 -2.5q57 0 89 35q28 31 28 78z" />
    <glyph glyph-name="ucircumflex" unicode="&#xfb;" horiz-adv-x="677" 
d="M621 459l-86 -401h67q11 0 8 -13l-8 -35q-3 -10 -11 -10h-77q-22 0 -36 12.5t-14 35.5l4 31l73 343h-80q-8 3 -8 7l2 11l5 28q2 12 13 12h139q11 0 11 -10v-6q-2 -4 -2 -5zM398 167q0 -75 -48 -125q-53 -56 -146 -56q-47 0 -89.5 12t-54.5 22q-6 5 -6 11l1 8l82 383h-80
q-8 3 -8 7l2 11l5 28q2 12 13 12h139q11 0 11 -10v-6q-2 -4 -2 -5l-37 -171q12 3 33 6.5t40 3.5q66 0 105.5 -33t39.5 -98zM322 158q0 19 -5 32t-19 24.5t-31 15t-37 3.5q-18 0 -29.5 -1.5t-34.5 -8.5l-34 -160l15 -4q3 -1 23 -4.5t36 -3.5q54 0 86 32q13 13 21.5 33t8.5 42
z" />
    <glyph glyph-name="udieresis" unicode="&#xfc;" horiz-adv-x="449" 
d="M399 170q0 -73 -45 -124q-28 -32 -69 -47q-34 -12 -77 -12q-50 0 -92 11t-55 22q-6 5 -6 11l1 8l82 383h-80q-8 3 -8 7l2 11l5 28q2 12 13 12h139q11 0 11 -10v-6q-2 -4 -2 -5l-37 -171q31 10 73 10q34 0 59 -7.5t46 -25.5q40 -36 40 -95zM323 158q0 16 -4.5 30t-18 25.5
t-30 15.5t-40.5 4q-16 0 -27.5 -1.5t-35.5 -8.5l-34 -160l15 -4q8 -2 26.5 -4.5t32.5 -2.5q24 0 46.5 7.5t39.5 23.5q30 28 30 75z" />
    <glyph glyph-name="yacute" unicode="&#xfd;" horiz-adv-x="428" 
d="M389 316q0 -65 -19 -127q-23 -75 -70 -129q-29 -34 -63 -51q-45 -23 -105 -23q-43 0 -81 15q-36 18 -43.5 22t-11 7t-3.5 7l2 6l26 43q4 5 6 5l12 -5q57 -35 99 -35q30 0 55 11q31 14 54 45q16 22 28.5 51t20.5 58h-152q-13 0 -10 12l8 38q1 7 5 9.5t10 2.5h153l3 38
q0 28 -4.5 47.5t-15 33.5t-30 23t-50.5 9q-17 0 -34 -3t-35 -11l-12 -58q-2 -7 -3 -9q-4 -6 -11 -6h-44q-2 0 -6.5 1t-2.5 9l19 91q2 11 8 17t15 10q24 11 54 17.5t64 6.5q38 0 69 -10t55 -37.5t32 -59.5t8 -71z" />
    <glyph glyph-name="thorn" unicode="&#xfe;" horiz-adv-x="687" 
d="M648 325q0 -65 -17.5 -123t-48.5 -106q-38 -58 -93 -86q-47 -24 -102 -24q-45 0 -73 15.5t-43.5 39t-21 51.5t-5.5 61v26t4 37h-83l-43 -204q-1 -7 -5 -9.5t-10 -2.5h-48q-12 0 -9 12l87 410h-80q-8 3 -8 7l2 11l5 28q2 12 13 12h139q11 0 11 -10v-6q-2 -4 -2 -5
l-39 -181h83q31 119 106 173q26 18 59 30.5t69 12.5q40 0 67 -11.5t48.5 -34.5t29.5 -53.5t8 -69.5zM572 324q0 27 -4 41q-7 24 -25 41q-13 12 -28 16.5t-31 4.5q-31 0 -62 -17.5t-54.5 -55.5t-36.5 -94t-13 -105q0 -24 3.5 -41.5t15.5 -32.5q8 -11 23.5 -19.5t38.5 -8.5
q25 0 49 10q49 20 80 75q20 35 32 88.5t12 97.5z" />
    <glyph glyph-name="ydieresis" unicode="&#xff;" horiz-adv-x="488" 
d="M433 468l-87 -410h67q11 0 8 -13l-8 -35q-3 -10 -11 -10h-77q-15 0 -25 5t-17.5 15t-7.5 28l4 31l26 126h-62q-28 0 -47 -19q-9 -10 -23 -34l-34 -64q-30 -57 -45 -71q-11 -11 -29 -19t-36 -10l-30 -2q-9 0 -10 8l-5 45q-1 13 12 14l15 2q7 1 13.5 3.5t13 7t11 11
t10.5 16.5l47 83q10 18 24 32t35 24q-35 10 -56 37t-21 63q0 56 41 95q55 53 165 53h130q12 0 9 -12zM351 418h-72q-22 0 -44 -5t-38.5 -17.5t-24.5 -29.5t-8 -37q0 -14 5 -25t14.5 -18.5t24 -13t33.5 -5.5h78z" />
    <glyph glyph-name="OE" unicode="&#x152;" horiz-adv-x="828" 
d="M798 238q0 -61 -29.5 -118.5t-77.5 -87.5q-29 -18 -65 -25t-74 -7h-251q-9 3 -9 7q0 3 1.5 7.5l2.5 7.5l8 30q2 10 11 10h66l56 262h-233l-56 -262h68q8 -3 8 -7l-4 -16l-8 -30q-2 -9 -12 -9h-210q-9 3 -9 7q0 3 1.5 7.5l2.5 7.5l8 30q2 10 11 10h66l119 561h-67
q-8 3 -8 7l3 15l8 30q2 10 12 10h212q8 -3 8 -7l-4 -16l-8 -29q-4 -10 -12 -10h-66l-50 -232h233l50 232h-67q-8 3 -8 7l3 15l8 30q2 11 12 10h212q8 -3 8 -7l-4 -16l-8 -29q-4 -10 -12 -10h-66l-49 -232h96q56 0 95 -19q28 -13 45.5 -34t25 -45.5t7.5 -54.5zM716 227
q0 51 -31 75q-13 10 -34 16t-56 6h-80l-55 -257h105q37 0 72 19t55 56q10 19 17 43t7 42z" />
    <glyph glyph-name="oe" unicode="&#x153;" horiz-adv-x="713" 
d="M663 169q0 -38 -12.5 -69t-32.5 -54q-31 -34 -76 -49q-34 -11 -73 -11q-47 0 -89.5 12t-52.5 20.5t-7 20.5l38 177h-193l-43 -204q-1 -7 -5 -9.5t-10 -2.5h-48q-12 0 -9 12l86 410h-79q-8 3 -8 7l2 11l5 28q2 12 13 12h139q9 0 9 -10q0 -6 -1 -11l-38 -181h193l39 183
q2 10 10 12l52 13q10 2 13 -1q2 -2 0 -7l-40 -190q34 10 76 10q35 0 57.5 -7t45.5 -27q39 -35 39 -95zM587 159q0 18 -4.5 31.5t-17 23.5t-29 14.5t-40.5 4.5q-13 0 -29 -2.5t-36 -7.5l-34 -160l15 -4q27 -8 58 -8q55 0 87 32q13 13 21.5 33t8.5 43z" />
    <glyph glyph-name="Scaron" unicode="&#x160;" horiz-adv-x="809" 
d="M779 239q0 -63 -29 -120.5t-78 -86.5q-26 -15 -60 -23.5t-67 -8.5h-263q-9 3 -9 7q0 3 1.5 7.5l2.5 7.5l8 30q2 10 11 10h66l118 556h-150l-35 -146q-23 -95 -53 -182q-52 -150 -105 -217q-26 -33 -54 -52q-37 -25 -87 -33l-22 -2q-14 0 -14 9l1 52q0 20 14 20l11 1
q42 4 69.5 26t53.5 71q33 66 73 183q34 102 55 187l21 88h-67q-8 3 -8 7l3 15l8 30q2 10 11 10h437q4 0 7 -7q0 -7 -3 -16l-8 -29q-3 -10 -13 -10h-66l-48 -229h83q45 0 70 -6q42 -10 71 -37q20 -18 32 -46t12 -66zM697 228q0 30 -8.5 48.5t-25 30t-39.5 16t-46 4.5h-80
l-57 -260h88q44 0 71 10q47 17 73 65q10 19 17 43t7 43z" />
    <glyph glyph-name="scaron" unicode="&#x161;" horiz-adv-x="699" 
d="M649 170q0 -39 -12 -70t-33 -54q-31 -34 -76 -49q-34 -11 -73 -11q-47 0 -89.5 12t-54.5 22q-6 5 -6 11l1 8l80 376h-114l-7 -30q-13 -59 -24 -96q-14 -50 -34 -105q-32 -89 -68 -131q-32 -37 -76 -54q-15 -6 -31.5 -9.5t-30.5 -3.5h-5q-16 0 -16 11v43q0 11 18 13l9 1
q46 6 75 33q41 38 74 138q10 30 29 98q14 49 16 59l9 40h-69q-8 3 -8 7l2 11l5 28q2 12 13 12h305q11 0 11 -10q0 -3 -2 -11l-36 -171q15 4 34.5 7t39.5 3q34 0 58.5 -7t46.5 -27q39 -35 39 -94zM573 160q0 16 -4.5 30t-18 25t-32.5 14.5t-36 3.5q-13 0 -29 -2.5t-36 -7.5
l-34 -160l15 -4q29 -8 61 -8q52 0 83 31t31 78z" />
    <glyph glyph-name="Ydieresis" unicode="&#x178;" horiz-adv-x="534" 
d="M480 478l-74 -347q-3 -12 -5.5 -31t-2.5 -21l1 -14l1 -7h68q11 0 8 -13l-8 -35q-3 -10 -11 -10h-58q-24 0 -36 4.5t-18 14.5q-9 13 -9 33v22v6q-30 -38 -62 -59q-20 -14 -49 -24.5t-63 -10.5q-26 0 -42 6.5t-31 23.5t-21 36.5t-6 38.5q0 11 2.5 25.5t6.5 32.5l58 273h-72
q-8 3 -8 7l2 11l5 28q2 12 13 12h131q11 0 11 -10v-6q-2 -4 -2 -5l-62 -289q-3 -18 -6 -33.5t-3 -27.5q0 -56 51 -56q26 0 52.5 12.5t45.5 28.5l19 19q19 24 34 65q9 26 18 65l46 218q2 10 10 12l52 13q6 1 10.5 0.5t3.5 -8.5zM287 -31l-28 -129q-3 -10 -11 -12l-47 -12
q-6 -2 -11 -2q-11 0 -7 11l41 119l47 34q5 4 10 4q9 0 6 -13z" />
    <glyph glyph-name="florin" unicode="&#x192;" horiz-adv-x="412" 
d="M425 639q-3 -8 -5 -8l-175 -79l-7 -2q-4 0 -7 5l-14 21l-1 4q0 5 5 8l155 109l8 3q3 0 8 -5l2 -2l28 -46zM382 382q0 -48 -29 -83t-89 -63l-41 -19q-25 -12 -50 -23.5t-39.5 -24t-21 -29t-6.5 -30.5q0 -28 18.5 -43.5t50.5 -15.5q25 0 42.5 3.5t58.5 19.5l31 12q4 0 8 -5
l12 -40q2 -8 -5 -14q-3 -2 -16 -9q-34 -15 -76 -23.5t-72 -8.5q-64 0 -100 37q-15 15 -21.5 33t-6.5 40q0 57 35 96q28 31 93 61l36 16l33 16q42 20 60.5 39.5t18.5 48.5q0 11 -2.5 20.5t-11 19t-21.5 13t-29 3.5q-17 0 -32 -2.5t-42 -12.5l-13 -52q-2 -7 -3 -9
q-4 -6 -11 -6h-39q-12 0 -9 10l19 83q2 9 8 14.5t16 10.5q35 16 67.5 22.5t58.5 6.5q66 0 97 -39q23 -29 23 -73z" />
    <glyph glyph-name="circumflex" unicode="&#x2c6;" horiz-adv-x="333" 
d="M378 587l-4 -8l-14 -17q-1 -1 -9 -6l-8 4l-82 59l-95 -57q-6 -4 -9 -4q-4 0 -8 6l-13 22q-2 4 -4 9q0 4 7 9l121 83q6 5 7 5h3q2 -2 5 -3.5t4 -2.5l94 -91q5 -5 5 -8z" />
    <glyph glyph-name="tilde" unicode="&#x2dc;" horiz-adv-x="333" 
d="M396 652q0 -3 -9.5 -16t-19 -22.5t-22.5 -18.5q-26 -17 -56 -17q-16 0 -32 7l-27 16q-14 9 -24.5 13.5t-21.5 4.5t-23 -6.5t-29 -28.5q-7 -11 -15 -4l-23 18q-6 4 -6 8q0 5 6 13q13 18 15 20q6 7 15 14q17 14 36 21t34 7q21 0 43 -11q7 -5 15 -9q25 -17 30 -19t16 -2
q20 0 35 13q4 4 19 22q5 6 9 5t5 -2l24 -17q3 -2 4 -5t2 -4z" />
    <glyph glyph-name="endash" unicode="&#x2013;" 
d="M480 269l-9 -34q-3 -12 -13 -12h-420q-10 0 -10 8q0 3 2 11l9 34q4 12 15 12h420q8 0 8 -8v-6q-2 -4 -2 -5z" />
    <glyph glyph-name="emdash" unicode="&#x2014;" horiz-adv-x="1000" 
d="M980 269l-9 -34q-3 -12 -13 -12h-920q-10 0 -10 8q0 3 2 11l9 34q4 12 15 12h920q8 0 8 -8v-6q-2 -4 -2 -5z" />
    <glyph glyph-name="quoteleft" unicode="&#x2018;" horiz-adv-x="204" 
d="M275 698l-2 -6l-83 -202q-4 -10 -15 -10h-85q-10 0 -10 7q0 6 4 10l147 214q4 6 9 6l7 -2l21 -10q7 -4 7 -7z" />
    <glyph glyph-name="quoteright" unicode="&#x2019;" horiz-adv-x="204" 
d="M266 710q0 -6 -4 -10l-147 -214q-4 -6 -9 -6l-7 2l-21 10q-7 4 -7 7l2 6l83 202q4 10 15 10h85q10 0 10 -7z" />
    <glyph glyph-name="quotesinglbase" unicode="&#x201a;" horiz-adv-x="204" 
d="M148 107q0 -6 -4 -10l-147 -214q-4 -6 -9 -6l-7 2l-21 10q-7 4 -7 7l2 6l83 202q4 10 15 10h85q10 0 10 -7z" />
    <glyph glyph-name="quotedblleft" unicode="&#x201c;" horiz-adv-x="464" 
d="M492 698l-2 -6l-83 -202q-4 -10 -15 -10h-85q-10 0 -10 7q0 6 4 10l147 214q4 6 9 6l7 -2l21 -10q7 -4 7 -7zM306 698l-2 -6l-83 -202q-4 -10 -15 -10h-85q-10 0 -10 7q0 6 4 10l147 214q4 6 9 6l7 -2l21 -10q7 -4 7 -7z" />
    <glyph glyph-name="quotedblright" unicode="&#x201d;" horiz-adv-x="501" 
d="M506 710q0 -6 -4 -10l-147 -214q-4 -6 -9 -6l-7 2l-21 10q-7 4 -7 7l2 6l83 202q4 10 15 10h85q10 0 10 -7zM320 710q0 -6 -4 -10l-147 -214q-4 -6 -9 -6l-7 2l-21 10q-7 4 -7 7l2 6l83 202q4 10 15 10h85q10 0 10 -7z" />
    <glyph glyph-name="quotedblbase" unicode="&#x201e;" horiz-adv-x="464" 
d="M367 107q0 -6 -4 -10l-147 -214q-4 -6 -9 -6l-7 2l-21 10q-7 4 -7 7l2 6l83 202q4 10 15 10h85q10 0 10 -7zM181 107q0 -6 -4 -10l-147 -214q-4 -6 -9 -6l-7 2l-21 10q-7 4 -7 7l2 6l83 202q4 10 15 10h85q10 0 10 -7z" />
    <glyph glyph-name="dagger" unicode="&#x2020;" 
d="M457 438l-8 -37q-2 -12 -14 -12h-121l-125 -587q-2 -12 -15 -12h-48q-9 0 -10 3t1 8l125 588h-121q-6 0 -10 7l2 11l8 37q3 12 14 12h121l46 218q2 11 13 11h50q10 0 10 -7l-2 -12l-45 -210h121q10 0 10 -7q0 -3 -2 -11z" />
    <glyph glyph-name="daggerdbl" unicode="&#x2021;" 
d="M458 441l-1 -3l-8 -37q-3 -12 -14 -12h-121l-62 -291h121q6 0 9 -6q0 -1 1 -3l-2 -9l-8 -37q-2 -9 -5 -10t-8 -2h-122l-49 -229q-2 -12 -15 -12h-48q-11 0 -10 8l50 233h-121q-12 0 -9 16l9 39q2 9 5 10t8 2h122l62 291h-121q-11 0 -9 16l9 40q3 11 14 11h121l46 218
q2 11 15 11h48q10 0 10 -9l-2 -10l-45 -210h121q14 0 9 -15z" />
    <glyph glyph-name="bullet" unicode="&#x2022;" 
d="M451 360q0 -74 -53 -127t-128 -53t-128 52t-53 128q0 74 53 128t128 54t128 -53t53 -129z" />
    <glyph glyph-name="ellipsis" unicode="&#x2026;" horiz-adv-x="1000" 
d="M857 64q0 -26 -19 -45t-45 -19t-45 19t-19 45t19 45t45 19t45 -19t19 -45zM523 64q0 -27 -18.5 -45.5t-45.5 -18.5q-26 0 -45 19t-19 45q0 27 18.5 45.5t45.5 18.5q26 0 45 -19t19 -45zM189 64q0 -27 -18.5 -45.5t-45.5 -18.5q-26 0 -45 19t-19 45q0 27 18.5 45.5
t45.5 18.5t45.5 -18.5t18.5 -45.5z" />
    <glyph glyph-name="perthousand" unicode="&#x2030;" horiz-adv-x="1074" 
d="M1031 209q0 -95 -51 -159t-123 -64q-46 0 -73 25q-32 30 -32 88q0 97 51.5 162.5t124.5 65.5q45 0 72 -26q31 -30 31 -92zM714 209q0 -95 -51 -159t-123 -64q-46 0 -73 25q-32 30 -32 88q0 97 51.5 162.5t124.5 65.5q45 0 72 -26q31 -30 31 -92zM599 650q0 -4 -4 -11
l-351 -644q-6 -9 -17 -9h-41q-6 0 -8.5 3t-2.5 4q4 7 5 10l351 645q5 9 15 9h46q7 0 7 -7zM348 539q0 -95 -51 -159t-123 -64q-46 0 -73 25q-32 30 -32 88q0 97 51.5 162.5t124.5 65.5q45 0 72 -26q31 -30 31 -92zM966 213q0 24 -7 38q-11 22 -37 22q-42 0 -72 -45
q-33 -49 -33 -130q0 -24 6 -36q11 -22 40 -22q39 0 69 44q34 50 34 129zM649 213q0 24 -7 38q-11 22 -37 22q-42 0 -72 -45q-33 -49 -33 -130q0 -24 6 -36q11 -22 40 -22q39 0 69 44q34 50 34 129zM283 543q0 24 -7 38q-11 22 -37 22q-42 0 -72 -45q-33 -49 -33 -130
q0 -24 6 -36q11 -22 40 -22q39 0 69 44q34 50 34 129z" />
    <glyph glyph-name="guilsinglleft" unicode="&#x2039;" horiz-adv-x="332" 
d="M324 437q0 -3 -1.5 -5t-2.5 -3l-177 -195l85 -188l3 -8q0 -6 -9 -10l-28 -13l-10 -4q-3 0 -7 6l-123 212q-3 6 -3 9t6 9l214 214q6 6 10 6l8 -3l30 -19q5 -6 5 -8z" />
    <glyph glyph-name="guilsinglright" unicode="&#x203a;" horiz-adv-x="332" 
d="M274 240q0 -3 -6 -9l-214 -214q-6 -6 -10 -6l-8 3l-30 19q-5 6 -5 8q0 3 1.5 5t2.5 3l177 195l-85 188l-3 8q0 6 9 10l28 13l10 4q3 0 7 -6l123 -212q3 -6 3 -9z" />
    <glyph glyph-name="trademark" unicode="&#x2122;" horiz-adv-x="746" 
d="M749 277q0 -7 -3.5 -9.5t-8.5 -2.5h-124q-12 0 -12 12v21q0 7 3.5 9.5t8.5 2.5h36l-7 237l-67 -182q-3 -9 -9 -13q-1 0 -3 -1h-25q-3 0 -6 3t-6 11l-63 181l-9 -236h36q7 0 9.5 -3.5t2.5 -8.5v-21q0 -7 -3.5 -9.5t-8.5 -2.5h-122q-12 0 -12 12v21q0 7 3.5 9.5t8.5 2.5h28
l19 299h-36q-7 0 -9.5 3.5t-2.5 8.5v21q0 12 12 12h87q8 0 14 -11l72 -201l74 203q2 9 11 9h91q12 0 12 -12v-22q0 -12 -12 -12h-36l17 -298h28q12 0 12 -12v-21zM337 547q0 -12 -12 -12h-27q-7 0 -9.5 3.5t-2.5 8.5v57h-52v-294h38q7 0 9.5 -3.5t2.5 -8.5v-21
q0 -12 -12 -12h-137q-12 0 -12 12v21q0 7 3.5 9.5t8.5 2.5h38v294h-52v-57q0 -12 -12 -12h-27q-7 0 -9.5 3.5t-2.5 8.5v95q0 12 12 12h243q7 0 9.5 -3.5t2.5 -8.5v-95z" />
    <glyph glyph-name="periodcentered" unicode="&#x2219;" 
d="M328 254q0 -26 -18 -44t-44 -18t-44 18t-18 44q0 24 18 43t44 19t44 -18t18 -44z" />
    </font>
</defs>
</svg>
